<svg width="86" height="20" viewBox="0 0 86 20" fill="none" xmlns="http://www.w3.org/2000/svg">
<mask id="path-1-outside-1_508_2255" maskUnits="userSpaceOnUse" x="0" y="0.226562" width="57" height="19" fill="black">
<rect fill="white" y="0.226562" width="57" height="19"/>
<path d="M16.9623 16.5751C16.9623 17.3509 16.7954 17.905 16.4617 18.2559C16.128 18.5884 15.6275 18.7731 14.96 18.7731H4.33706C3.66965 18.7731 3.16909 18.5884 2.83538 18.2559C2.50168 17.905 2.33483 17.3509 2.33483 16.5751V12.0315C2.33483 11.8468 2.3719 11.736 2.44606 11.6621C2.52022 11.6067 2.63145 11.5698 2.81685 11.5698H16.4803C16.6471 11.5698 16.7769 11.6067 16.8511 11.6621C16.9252 11.736 16.9623 11.8468 16.9623 12.0315V16.5751ZM1.0927 1.68831C1.0927 1.50361 1.12977 1.39279 1.20393 1.31891C1.27809 1.2635 1.38932 1.22656 1.57472 1.22656H11.2707C11.4376 1.22656 11.5674 1.2635 11.6415 1.31891C11.7157 1.39279 11.7528 1.50361 11.7528 1.68831V3.84931C11.7528 4.03401 11.7157 4.1633 11.6415 4.21871C11.5674 4.29259 11.4376 4.31106 11.2707 4.31106H8.19323C8.19323 4.68046 8.2303 5.01292 8.323 5.34538C8.39716 5.69631 8.56401 6.0103 8.80502 6.28735C9.02749 6.58287 9.34266 6.84145 9.75052 7.06309C10.1398 7.28473 10.6404 7.46943 11.2707 7.58025C11.3078 7.59872 11.382 7.61719 11.4561 7.61719C11.5117 7.63566 11.5674 7.65413 11.6415 7.69107C11.6971 7.74648 11.7528 7.80189 11.8084 7.87577C11.8455 7.96812 11.864 8.07894 11.864 8.2267V10.2769C11.864 10.4985 11.8084 10.6278 11.6971 10.6647C11.5674 10.7202 11.4561 10.7386 11.382 10.7202C10.937 10.6832 10.5106 10.6278 10.0657 10.517C9.60221 10.4431 9.15727 10.3138 8.73086 10.1291C8.28592 9.98135 7.87806 9.75971 7.48873 9.50113C7.08087 9.24255 6.72863 8.94703 6.432 8.57763C6.09829 8.94703 5.74605 9.24255 5.37526 9.50113C4.9674 9.75971 4.55953 9.98135 4.13313 10.1291C3.68819 10.3138 3.26179 10.4431 2.81685 10.517C2.35336 10.6278 1.90842 10.6832 1.48202 10.7202C1.38932 10.7386 1.29663 10.7202 1.18539 10.6647C1.05562 10.6278 1 10.4985 1 10.2769V8.2267C1 8.07894 1.01854 7.96812 1.07416 7.87577C1.11124 7.80189 1.14831 7.74648 1.22247 7.69107C1.27809 7.65413 1.35225 7.63566 1.4264 7.61719C1.48202 7.61719 1.53764 7.59872 1.59326 7.58025C2.18651 7.46943 2.68707 7.28473 3.09493 7.06309C3.48426 6.84145 3.79943 6.58287 4.04044 6.28735C4.26291 6.0103 4.42976 5.69631 4.541 5.34538C4.61515 5.01292 4.67077 4.68046 4.67077 4.31106H1.57472C1.38932 4.31106 1.27809 4.29259 1.20393 4.21871C1.12977 4.1633 1.0927 4.03401 1.0927 3.84931V1.68831ZM19.1499 6.71216C19.1499 6.89686 19.1128 7.02615 19.0387 7.08156C18.9645 7.15544 18.8347 7.17391 18.6679 7.17391H16.9623V10.2584C16.9623 10.4431 16.9252 10.5724 16.8511 10.6278C16.7769 10.7017 16.6471 10.7202 16.4803 10.7202H13.8848C13.6994 10.7202 13.5881 10.7017 13.514 10.6278C13.4398 10.5724 13.4028 10.4431 13.4028 10.2584V1.68831C13.4028 1.50361 13.4398 1.39279 13.514 1.31891C13.5881 1.2635 13.6994 1.22656 13.8848 1.22656H16.4803C16.6471 1.22656 16.7769 1.2635 16.8511 1.31891C16.9252 1.39279 16.9623 1.50361 16.9623 1.68831V4.10789H18.6679C18.8347 4.10789 18.9645 4.14483 19.0387 4.20024C19.1128 4.27412 19.1499 4.38494 19.1499 4.56964V6.71216ZM13.0134 15.8733C13.2174 15.8733 13.3657 15.8363 13.4398 15.7625C13.514 15.6701 13.5511 15.5224 13.5511 15.2822V14.3772H5.70897V15.2822C5.70897 15.5224 5.74605 15.6701 5.8202 15.7625C5.89436 15.8363 6.02413 15.8733 6.2466 15.8733H13.0134Z"/>
<path d="M32.8504 18.4037C32.665 18.4037 32.5538 18.3667 32.4796 18.3113C32.4055 18.2375 32.3684 18.1266 32.3684 17.9419V1.68831C32.3684 1.50361 32.4055 1.39279 32.4796 1.31891C32.5538 1.2635 32.665 1.22656 32.8504 1.22656H35.4459C35.6128 1.22656 35.7425 1.2635 35.8167 1.31891C35.8909 1.39279 35.9279 1.50361 35.9279 1.68831V17.9419C35.9279 18.1266 35.8909 18.2375 35.8167 18.3113C35.7425 18.3667 35.6128 18.4037 35.4459 18.4037H32.8504ZM26.4358 1.22656C26.6027 1.22656 26.7325 1.2635 26.8066 1.31891C26.8808 1.39279 26.9179 1.50361 26.9179 1.68831V11.0157C26.9179 11.3851 26.9549 11.7175 27.0476 12.05C27.1218 12.4009 27.2886 12.7149 27.5297 12.992C27.7521 13.2875 28.0673 13.5461 28.4752 13.7677C28.8645 14.0078 29.365 14.1925 29.9954 14.3033C30.0324 14.3218 30.1066 14.3403 30.1808 14.3403C30.2364 14.3587 30.292 14.3772 30.3662 14.4142C30.4218 14.4696 30.4774 14.525 30.533 14.5989C30.5701 14.6912 30.5886 14.802 30.5886 14.9498V17C30.5886 17.2216 30.533 17.3509 30.4218 17.4063C30.292 17.4432 30.1808 17.4432 30.1066 17.4432C29.6617 17.4063 29.2353 17.3324 28.7903 17.2585C28.3268 17.1477 27.8819 17.0184 27.4555 16.8707C27.0106 16.686 26.6027 16.4828 26.2134 16.2242C25.8055 15.9656 25.4533 15.6516 25.1566 15.3007C24.8229 15.6516 24.4707 15.9656 24.0999 16.2242C23.692 16.4828 23.2842 16.686 22.8578 16.8707C22.4128 17.0184 21.9864 17.1477 21.5415 17.2585C21.078 17.3324 20.6331 17.4063 20.2067 17.4432C20.114 17.4432 20.0213 17.4432 19.91 17.4063C19.7803 17.3509 19.7246 17.2216 19.7246 17V14.9498C19.7246 14.802 19.7432 14.6912 19.7988 14.5989C19.8359 14.525 19.8729 14.4696 19.9471 14.4142C20.0027 14.3772 20.0769 14.3587 20.151 14.3403C20.2067 14.3403 20.2623 14.3218 20.3179 14.3033C20.9297 14.1925 21.4302 14.0078 21.8381 13.7677C22.2274 13.5461 22.5426 13.2875 22.7836 12.992C23.0061 12.7149 23.1729 12.4009 23.2656 12.05C23.3398 11.7175 23.3954 11.3851 23.3954 11.0157V1.68831C23.3954 1.50361 23.4325 1.39279 23.5066 1.31891C23.5808 1.2635 23.692 1.22656 23.8774 1.22656H26.4358Z"/>
<path d="M54.0408 16.5751C54.0408 17.3509 53.8739 17.905 53.5402 18.2559C53.2065 18.5884 52.7059 18.7731 52.0385 18.7731H41.4155C40.7481 18.7731 40.2476 18.5884 39.9139 18.2559C39.5802 17.905 39.4133 17.3509 39.4133 16.5751V12.0315C39.4133 11.8468 39.4504 11.736 39.5245 11.6621C39.5987 11.6067 39.7099 11.5698 39.8953 11.5698H53.5588C53.7256 11.5698 53.8554 11.6067 53.9295 11.6621C54.0037 11.736 54.0408 11.8468 54.0408 12.0315V16.5751ZM48.6088 8.17129C48.6088 8.94703 48.4419 9.5196 48.1082 9.85206C47.7745 10.203 47.2739 10.3692 46.6065 10.3692H40.5627C39.8953 10.3692 39.3948 10.203 39.0611 9.85206C38.7274 9.5196 38.5605 8.94703 38.5605 8.17129V1.68831C38.5605 1.50361 38.5976 1.39279 38.6717 1.31891C38.7459 1.2635 38.8571 1.22656 39.0425 1.22656H48.1267C48.2936 1.22656 48.4234 1.2635 48.4975 1.31891C48.5717 1.39279 48.6088 1.50361 48.6088 1.68831V8.17129ZM56.2284 6.71216C56.2284 6.89686 56.1913 7.02615 56.1172 7.08156C56.043 7.15544 55.9132 7.17391 55.7464 7.17391H54.0408V10.2584C54.0408 10.4431 54.0037 10.5724 53.9295 10.6278C53.8554 10.7017 53.7256 10.7202 53.5588 10.7202H50.9632C50.7779 10.7202 50.6666 10.7017 50.5925 10.6278C50.5183 10.5724 50.4812 10.4431 50.4812 10.2584V1.68831C50.4812 1.50361 50.5183 1.39279 50.5925 1.31891C50.6666 1.2635 50.7779 1.22656 50.9632 1.22656H53.5588C53.7256 1.22656 53.8554 1.2635 53.9295 1.31891C54.0037 1.39279 54.0408 1.50361 54.0408 1.68831V4.10789H55.7464C55.9132 4.10789 56.043 4.14483 56.1172 4.20024C56.1913 4.27412 56.2284 4.38494 56.2284 4.56964V6.71216ZM50.0919 15.8733C50.2958 15.8733 50.4442 15.8363 50.5183 15.7625C50.5925 15.6701 50.6295 15.5224 50.6295 15.2822V14.3772H42.7874V15.2822C42.7874 15.5224 42.8245 15.6701 42.8987 15.7625C42.9728 15.8363 43.1026 15.8733 43.3251 15.8733H50.0919ZM44.6784 7.46943C44.8824 7.46943 45.0307 7.43249 45.1049 7.34014C45.179 7.26626 45.2161 7.1185 45.2161 6.87839V4.03401H41.9532V6.87839C41.9532 7.1185 41.9903 7.26626 42.0644 7.34014C42.1386 7.43249 42.2684 7.46943 42.4908 7.46943H44.6784Z"/>
</mask>
<path d="M16.9623 16.5751C16.9623 17.3509 16.7954 17.905 16.4617 18.2559C16.128 18.5884 15.6275 18.7731 14.96 18.7731H4.33706C3.66965 18.7731 3.16909 18.5884 2.83538 18.2559C2.50168 17.905 2.33483 17.3509 2.33483 16.5751V12.0315C2.33483 11.8468 2.3719 11.736 2.44606 11.6621C2.52022 11.6067 2.63145 11.5698 2.81685 11.5698H16.4803C16.6471 11.5698 16.7769 11.6067 16.8511 11.6621C16.9252 11.736 16.9623 11.8468 16.9623 12.0315V16.5751ZM1.0927 1.68831C1.0927 1.50361 1.12977 1.39279 1.20393 1.31891C1.27809 1.2635 1.38932 1.22656 1.57472 1.22656H11.2707C11.4376 1.22656 11.5674 1.2635 11.6415 1.31891C11.7157 1.39279 11.7528 1.50361 11.7528 1.68831V3.84931C11.7528 4.03401 11.7157 4.1633 11.6415 4.21871C11.5674 4.29259 11.4376 4.31106 11.2707 4.31106H8.19323C8.19323 4.68046 8.2303 5.01292 8.323 5.34538C8.39716 5.69631 8.56401 6.0103 8.80502 6.28735C9.02749 6.58287 9.34266 6.84145 9.75052 7.06309C10.1398 7.28473 10.6404 7.46943 11.2707 7.58025C11.3078 7.59872 11.382 7.61719 11.4561 7.61719C11.5117 7.63566 11.5674 7.65413 11.6415 7.69107C11.6971 7.74648 11.7528 7.80189 11.8084 7.87577C11.8455 7.96812 11.864 8.07894 11.864 8.2267V10.2769C11.864 10.4985 11.8084 10.6278 11.6971 10.6647C11.5674 10.7202 11.4561 10.7386 11.382 10.7202C10.937 10.6832 10.5106 10.6278 10.0657 10.517C9.60221 10.4431 9.15727 10.3138 8.73086 10.1291C8.28592 9.98135 7.87806 9.75971 7.48873 9.50113C7.08087 9.24255 6.72863 8.94703 6.432 8.57763C6.09829 8.94703 5.74605 9.24255 5.37526 9.50113C4.9674 9.75971 4.55953 9.98135 4.13313 10.1291C3.68819 10.3138 3.26179 10.4431 2.81685 10.517C2.35336 10.6278 1.90842 10.6832 1.48202 10.7202C1.38932 10.7386 1.29663 10.7202 1.18539 10.6647C1.05562 10.6278 1 10.4985 1 10.2769V8.2267C1 8.07894 1.01854 7.96812 1.07416 7.87577C1.11124 7.80189 1.14831 7.74648 1.22247 7.69107C1.27809 7.65413 1.35225 7.63566 1.4264 7.61719C1.48202 7.61719 1.53764 7.59872 1.59326 7.58025C2.18651 7.46943 2.68707 7.28473 3.09493 7.06309C3.48426 6.84145 3.79943 6.58287 4.04044 6.28735C4.26291 6.0103 4.42976 5.69631 4.541 5.34538C4.61515 5.01292 4.67077 4.68046 4.67077 4.31106H1.57472C1.38932 4.31106 1.27809 4.29259 1.20393 4.21871C1.12977 4.1633 1.0927 4.03401 1.0927 3.84931V1.68831ZM19.1499 6.71216C19.1499 6.89686 19.1128 7.02615 19.0387 7.08156C18.9645 7.15544 18.8347 7.17391 18.6679 7.17391H16.9623V10.2584C16.9623 10.4431 16.9252 10.5724 16.8511 10.6278C16.7769 10.7017 16.6471 10.7202 16.4803 10.7202H13.8848C13.6994 10.7202 13.5881 10.7017 13.514 10.6278C13.4398 10.5724 13.4028 10.4431 13.4028 10.2584V1.68831C13.4028 1.50361 13.4398 1.39279 13.514 1.31891C13.5881 1.2635 13.6994 1.22656 13.8848 1.22656H16.4803C16.6471 1.22656 16.7769 1.2635 16.8511 1.31891C16.9252 1.39279 16.9623 1.50361 16.9623 1.68831V4.10789H18.6679C18.8347 4.10789 18.9645 4.14483 19.0387 4.20024C19.1128 4.27412 19.1499 4.38494 19.1499 4.56964V6.71216ZM13.0134 15.8733C13.2174 15.8733 13.3657 15.8363 13.4398 15.7625C13.514 15.6701 13.5511 15.5224 13.5511 15.2822V14.3772H5.70897V15.2822C5.70897 15.5224 5.74605 15.6701 5.8202 15.7625C5.89436 15.8363 6.02413 15.8733 6.2466 15.8733H13.0134Z" fill="#5A2F0F"/>
<path d="M32.8504 18.4037C32.665 18.4037 32.5538 18.3667 32.4796 18.3113C32.4055 18.2375 32.3684 18.1266 32.3684 17.9419V1.68831C32.3684 1.50361 32.4055 1.39279 32.4796 1.31891C32.5538 1.2635 32.665 1.22656 32.8504 1.22656H35.4459C35.6128 1.22656 35.7425 1.2635 35.8167 1.31891C35.8909 1.39279 35.9279 1.50361 35.9279 1.68831V17.9419C35.9279 18.1266 35.8909 18.2375 35.8167 18.3113C35.7425 18.3667 35.6128 18.4037 35.4459 18.4037H32.8504ZM26.4358 1.22656C26.6027 1.22656 26.7325 1.2635 26.8066 1.31891C26.8808 1.39279 26.9179 1.50361 26.9179 1.68831V11.0157C26.9179 11.3851 26.9549 11.7175 27.0476 12.05C27.1218 12.4009 27.2886 12.7149 27.5297 12.992C27.7521 13.2875 28.0673 13.5461 28.4752 13.7677C28.8645 14.0078 29.365 14.1925 29.9954 14.3033C30.0324 14.3218 30.1066 14.3403 30.1808 14.3403C30.2364 14.3587 30.292 14.3772 30.3662 14.4142C30.4218 14.4696 30.4774 14.525 30.533 14.5989C30.5701 14.6912 30.5886 14.802 30.5886 14.9498V17C30.5886 17.2216 30.533 17.3509 30.4218 17.4063C30.292 17.4432 30.1808 17.4432 30.1066 17.4432C29.6617 17.4063 29.2353 17.3324 28.7903 17.2585C28.3268 17.1477 27.8819 17.0184 27.4555 16.8707C27.0106 16.686 26.6027 16.4828 26.2134 16.2242C25.8055 15.9656 25.4533 15.6516 25.1566 15.3007C24.8229 15.6516 24.4707 15.9656 24.0999 16.2242C23.692 16.4828 23.2842 16.686 22.8578 16.8707C22.4128 17.0184 21.9864 17.1477 21.5415 17.2585C21.078 17.3324 20.6331 17.4063 20.2067 17.4432C20.114 17.4432 20.0213 17.4432 19.91 17.4063C19.7803 17.3509 19.7246 17.2216 19.7246 17V14.9498C19.7246 14.802 19.7432 14.6912 19.7988 14.5989C19.8359 14.525 19.8729 14.4696 19.9471 14.4142C20.0027 14.3772 20.0769 14.3587 20.151 14.3403C20.2067 14.3403 20.2623 14.3218 20.3179 14.3033C20.9297 14.1925 21.4302 14.0078 21.8381 13.7677C22.2274 13.5461 22.5426 13.2875 22.7836 12.992C23.0061 12.7149 23.1729 12.4009 23.2656 12.05C23.3398 11.7175 23.3954 11.3851 23.3954 11.0157V1.68831C23.3954 1.50361 23.4325 1.39279 23.5066 1.31891C23.5808 1.2635 23.692 1.22656 23.8774 1.22656H26.4358Z" fill="#5A2F0F"/>
<path d="M54.0408 16.5751C54.0408 17.3509 53.8739 17.905 53.5402 18.2559C53.2065 18.5884 52.7059 18.7731 52.0385 18.7731H41.4155C40.7481 18.7731 40.2476 18.5884 39.9139 18.2559C39.5802 17.905 39.4133 17.3509 39.4133 16.5751V12.0315C39.4133 11.8468 39.4504 11.736 39.5245 11.6621C39.5987 11.6067 39.7099 11.5698 39.8953 11.5698H53.5588C53.7256 11.5698 53.8554 11.6067 53.9295 11.6621C54.0037 11.736 54.0408 11.8468 54.0408 12.0315V16.5751ZM48.6088 8.17129C48.6088 8.94703 48.4419 9.5196 48.1082 9.85206C47.7745 10.203 47.2739 10.3692 46.6065 10.3692H40.5627C39.8953 10.3692 39.3948 10.203 39.0611 9.85206C38.7274 9.5196 38.5605 8.94703 38.5605 8.17129V1.68831C38.5605 1.50361 38.5976 1.39279 38.6717 1.31891C38.7459 1.2635 38.8571 1.22656 39.0425 1.22656H48.1267C48.2936 1.22656 48.4234 1.2635 48.4975 1.31891C48.5717 1.39279 48.6088 1.50361 48.6088 1.68831V8.17129ZM56.2284 6.71216C56.2284 6.89686 56.1913 7.02615 56.1172 7.08156C56.043 7.15544 55.9132 7.17391 55.7464 7.17391H54.0408V10.2584C54.0408 10.4431 54.0037 10.5724 53.9295 10.6278C53.8554 10.7017 53.7256 10.7202 53.5588 10.7202H50.9632C50.7779 10.7202 50.6666 10.7017 50.5925 10.6278C50.5183 10.5724 50.4812 10.4431 50.4812 10.2584V1.68831C50.4812 1.50361 50.5183 1.39279 50.5925 1.31891C50.6666 1.2635 50.7779 1.22656 50.9632 1.22656H53.5588C53.7256 1.22656 53.8554 1.2635 53.9295 1.31891C54.0037 1.39279 54.0408 1.50361 54.0408 1.68831V4.10789H55.7464C55.9132 4.10789 56.043 4.14483 56.1172 4.20024C56.1913 4.27412 56.2284 4.38494 56.2284 4.56964V6.71216ZM50.0919 15.8733C50.2958 15.8733 50.4442 15.8363 50.5183 15.7625C50.5925 15.6701 50.6295 15.5224 50.6295 15.2822V14.3772H42.7874V15.2822C42.7874 15.5224 42.8245 15.6701 42.8987 15.7625C42.9728 15.8363 43.1026 15.8733 43.3251 15.8733H50.0919ZM44.6784 7.46943C44.8824 7.46943 45.0307 7.43249 45.1049 7.34014C45.179 7.26626 45.2161 7.1185 45.2161 6.87839V4.03401H41.9532V6.87839C41.9532 7.1185 41.9903 7.26626 42.0644 7.34014C42.1386 7.43249 42.2684 7.46943 42.4908 7.46943H44.6784Z" fill="#5A2F0F"/>
<path d="M16.9623 16.5751C16.9623 17.3509 16.7954 17.905 16.4617 18.2559C16.128 18.5884 15.6275 18.7731 14.96 18.7731H4.33706C3.66965 18.7731 3.16909 18.5884 2.83538 18.2559C2.50168 17.905 2.33483 17.3509 2.33483 16.5751V12.0315C2.33483 11.8468 2.3719 11.736 2.44606 11.6621C2.52022 11.6067 2.63145 11.5698 2.81685 11.5698H16.4803C16.6471 11.5698 16.7769 11.6067 16.8511 11.6621C16.9252 11.736 16.9623 11.8468 16.9623 12.0315V16.5751ZM1.0927 1.68831C1.0927 1.50361 1.12977 1.39279 1.20393 1.31891C1.27809 1.2635 1.38932 1.22656 1.57472 1.22656H11.2707C11.4376 1.22656 11.5674 1.2635 11.6415 1.31891C11.7157 1.39279 11.7528 1.50361 11.7528 1.68831V3.84931C11.7528 4.03401 11.7157 4.1633 11.6415 4.21871C11.5674 4.29259 11.4376 4.31106 11.2707 4.31106H8.19323C8.19323 4.68046 8.2303 5.01292 8.323 5.34538C8.39716 5.69631 8.56401 6.0103 8.80502 6.28735C9.02749 6.58287 9.34266 6.84145 9.75052 7.06309C10.1398 7.28473 10.6404 7.46943 11.2707 7.58025C11.3078 7.59872 11.382 7.61719 11.4561 7.61719C11.5117 7.63566 11.5674 7.65413 11.6415 7.69107C11.6971 7.74648 11.7528 7.80189 11.8084 7.87577C11.8455 7.96812 11.864 8.07894 11.864 8.2267V10.2769C11.864 10.4985 11.8084 10.6278 11.6971 10.6647C11.5674 10.7202 11.4561 10.7386 11.382 10.7202C10.937 10.6832 10.5106 10.6278 10.0657 10.517C9.60221 10.4431 9.15727 10.3138 8.73086 10.1291C8.28592 9.98135 7.87806 9.75971 7.48873 9.50113C7.08087 9.24255 6.72863 8.94703 6.432 8.57763C6.09829 8.94703 5.74605 9.24255 5.37526 9.50113C4.9674 9.75971 4.55953 9.98135 4.13313 10.1291C3.68819 10.3138 3.26179 10.4431 2.81685 10.517C2.35336 10.6278 1.90842 10.6832 1.48202 10.7202C1.38932 10.7386 1.29663 10.7202 1.18539 10.6647C1.05562 10.6278 1 10.4985 1 10.2769V8.2267C1 8.07894 1.01854 7.96812 1.07416 7.87577C1.11124 7.80189 1.14831 7.74648 1.22247 7.69107C1.27809 7.65413 1.35225 7.63566 1.4264 7.61719C1.48202 7.61719 1.53764 7.59872 1.59326 7.58025C2.18651 7.46943 2.68707 7.28473 3.09493 7.06309C3.48426 6.84145 3.79943 6.58287 4.04044 6.28735C4.26291 6.0103 4.42976 5.69631 4.541 5.34538C4.61515 5.01292 4.67077 4.68046 4.67077 4.31106H1.57472C1.38932 4.31106 1.27809 4.29259 1.20393 4.21871C1.12977 4.1633 1.0927 4.03401 1.0927 3.84931V1.68831ZM19.1499 6.71216C19.1499 6.89686 19.1128 7.02615 19.0387 7.08156C18.9645 7.15544 18.8347 7.17391 18.6679 7.17391H16.9623V10.2584C16.9623 10.4431 16.9252 10.5724 16.8511 10.6278C16.7769 10.7017 16.6471 10.7202 16.4803 10.7202H13.8848C13.6994 10.7202 13.5881 10.7017 13.514 10.6278C13.4398 10.5724 13.4028 10.4431 13.4028 10.2584V1.68831C13.4028 1.50361 13.4398 1.39279 13.514 1.31891C13.5881 1.2635 13.6994 1.22656 13.8848 1.22656H16.4803C16.6471 1.22656 16.7769 1.2635 16.8511 1.31891C16.9252 1.39279 16.9623 1.50361 16.9623 1.68831V4.10789H18.6679C18.8347 4.10789 18.9645 4.14483 19.0387 4.20024C19.1128 4.27412 19.1499 4.38494 19.1499 4.56964V6.71216ZM13.0134 15.8733C13.2174 15.8733 13.3657 15.8363 13.4398 15.7625C13.514 15.6701 13.5511 15.5224 13.5511 15.2822V14.3772H5.70897V15.2822C5.70897 15.5224 5.74605 15.6701 5.8202 15.7625C5.89436 15.8363 6.02413 15.8733 6.2466 15.8733H13.0134Z" stroke="#5A2F0F" stroke-width="0.115059" mask="url(#path-1-outside-1_508_2255)"/>
<path d="M32.8504 18.4037C32.665 18.4037 32.5538 18.3667 32.4796 18.3113C32.4055 18.2375 32.3684 18.1266 32.3684 17.9419V1.68831C32.3684 1.50361 32.4055 1.39279 32.4796 1.31891C32.5538 1.2635 32.665 1.22656 32.8504 1.22656H35.4459C35.6128 1.22656 35.7425 1.2635 35.8167 1.31891C35.8909 1.39279 35.9279 1.50361 35.9279 1.68831V17.9419C35.9279 18.1266 35.8909 18.2375 35.8167 18.3113C35.7425 18.3667 35.6128 18.4037 35.4459 18.4037H32.8504ZM26.4358 1.22656C26.6027 1.22656 26.7325 1.2635 26.8066 1.31891C26.8808 1.39279 26.9179 1.50361 26.9179 1.68831V11.0157C26.9179 11.3851 26.9549 11.7175 27.0476 12.05C27.1218 12.4009 27.2886 12.7149 27.5297 12.992C27.7521 13.2875 28.0673 13.5461 28.4752 13.7677C28.8645 14.0078 29.365 14.1925 29.9954 14.3033C30.0324 14.3218 30.1066 14.3403 30.1808 14.3403C30.2364 14.3587 30.292 14.3772 30.3662 14.4142C30.4218 14.4696 30.4774 14.525 30.533 14.5989C30.5701 14.6912 30.5886 14.802 30.5886 14.9498V17C30.5886 17.2216 30.533 17.3509 30.4218 17.4063C30.292 17.4432 30.1808 17.4432 30.1066 17.4432C29.6617 17.4063 29.2353 17.3324 28.7903 17.2585C28.3268 17.1477 27.8819 17.0184 27.4555 16.8707C27.0106 16.686 26.6027 16.4828 26.2134 16.2242C25.8055 15.9656 25.4533 15.6516 25.1566 15.3007C24.8229 15.6516 24.4707 15.9656 24.0999 16.2242C23.692 16.4828 23.2842 16.686 22.8578 16.8707C22.4128 17.0184 21.9864 17.1477 21.5415 17.2585C21.078 17.3324 20.6331 17.4063 20.2067 17.4432C20.114 17.4432 20.0213 17.4432 19.91 17.4063C19.7803 17.3509 19.7246 17.2216 19.7246 17V14.9498C19.7246 14.802 19.7432 14.6912 19.7988 14.5989C19.8359 14.525 19.8729 14.4696 19.9471 14.4142C20.0027 14.3772 20.0769 14.3587 20.151 14.3403C20.2067 14.3403 20.2623 14.3218 20.3179 14.3033C20.9297 14.1925 21.4302 14.0078 21.8381 13.7677C22.2274 13.5461 22.5426 13.2875 22.7836 12.992C23.0061 12.7149 23.1729 12.4009 23.2656 12.05C23.3398 11.7175 23.3954 11.3851 23.3954 11.0157V1.68831C23.3954 1.50361 23.4325 1.39279 23.5066 1.31891C23.5808 1.2635 23.692 1.22656 23.8774 1.22656H26.4358Z" stroke="#5A2F0F" stroke-width="0.115059" mask="url(#path-1-outside-1_508_2255)"/>
<path d="M54.0408 16.5751C54.0408 17.3509 53.8739 17.905 53.5402 18.2559C53.2065 18.5884 52.7059 18.7731 52.0385 18.7731H41.4155C40.7481 18.7731 40.2476 18.5884 39.9139 18.2559C39.5802 17.905 39.4133 17.3509 39.4133 16.5751V12.0315C39.4133 11.8468 39.4504 11.736 39.5245 11.6621C39.5987 11.6067 39.7099 11.5698 39.8953 11.5698H53.5588C53.7256 11.5698 53.8554 11.6067 53.9295 11.6621C54.0037 11.736 54.0408 11.8468 54.0408 12.0315V16.5751ZM48.6088 8.17129C48.6088 8.94703 48.4419 9.5196 48.1082 9.85206C47.7745 10.203 47.2739 10.3692 46.6065 10.3692H40.5627C39.8953 10.3692 39.3948 10.203 39.0611 9.85206C38.7274 9.5196 38.5605 8.94703 38.5605 8.17129V1.68831C38.5605 1.50361 38.5976 1.39279 38.6717 1.31891C38.7459 1.2635 38.8571 1.22656 39.0425 1.22656H48.1267C48.2936 1.22656 48.4234 1.2635 48.4975 1.31891C48.5717 1.39279 48.6088 1.50361 48.6088 1.68831V8.17129ZM56.2284 6.71216C56.2284 6.89686 56.1913 7.02615 56.1172 7.08156C56.043 7.15544 55.9132 7.17391 55.7464 7.17391H54.0408V10.2584C54.0408 10.4431 54.0037 10.5724 53.9295 10.6278C53.8554 10.7017 53.7256 10.7202 53.5588 10.7202H50.9632C50.7779 10.7202 50.6666 10.7017 50.5925 10.6278C50.5183 10.5724 50.4812 10.4431 50.4812 10.2584V1.68831C50.4812 1.50361 50.5183 1.39279 50.5925 1.31891C50.6666 1.2635 50.7779 1.22656 50.9632 1.22656H53.5588C53.7256 1.22656 53.8554 1.2635 53.9295 1.31891C54.0037 1.39279 54.0408 1.50361 54.0408 1.68831V4.10789H55.7464C55.9132 4.10789 56.043 4.14483 56.1172 4.20024C56.1913 4.27412 56.2284 4.38494 56.2284 4.56964V6.71216ZM50.0919 15.8733C50.2958 15.8733 50.4442 15.8363 50.5183 15.7625C50.5925 15.6701 50.6295 15.5224 50.6295 15.2822V14.3772H42.7874V15.2822C42.7874 15.5224 42.8245 15.6701 42.8987 15.7625C42.9728 15.8363 43.1026 15.8733 43.3251 15.8733H50.0919ZM44.6784 7.46943C44.8824 7.46943 45.0307 7.43249 45.1049 7.34014C45.179 7.26626 45.2161 7.1185 45.2161 6.87839V4.03401H41.9532V6.87839C41.9532 7.1185 41.9903 7.26626 42.0644 7.34014C42.1386 7.43249 42.2684 7.46943 42.4908 7.46943H44.6784Z" stroke="#5A2F0F" stroke-width="0.115059" mask="url(#path-1-outside-1_508_2255)"/>
<mask id="path-2-inside-2_508_2255" fill="white">
<path fill-rule="evenodd" clip-rule="evenodd" d="M76.7119 15.5093C75.3691 18.0878 72.6721 19.8485 69.5638 19.8485C66.4022 19.8485 63.6661 18.0269 62.3478 15.3759C62.0882 15.4774 61.8057 15.5331 61.5102 15.5331C60.2393 15.5331 59.209 14.5028 59.209 13.2319C59.209 11.961 60.2393 10.9308 61.5102 10.9308C61.5253 10.9308 61.5404 10.9309 61.5554 10.9312C61.9861 6.88891 65.4072 3.74023 69.5638 3.74023C73.7416 3.74023 77.1765 6.92114 77.5786 10.9932C78.5917 11.2342 79.3452 12.1451 79.3452 13.2319C79.3452 14.5028 78.3149 15.5331 77.044 15.5331C76.9312 15.5331 76.8203 15.525 76.7119 15.5093Z"/>
</mask>
<path d="M76.7119 15.5093L76.8354 14.6553L76.2293 14.5677L75.9465 15.1107L76.7119 15.5093ZM62.3478 15.3759L63.1205 14.9917L62.7689 14.2847L62.0336 14.5722L62.3478 15.3759ZM61.5554 10.9312L61.5388 11.794L62.3297 11.8092L62.4135 11.0226L61.5554 10.9312ZM77.5786 10.9932L76.7198 11.078L76.7803 11.6903L77.3789 11.8327L77.5786 10.9932ZM69.5638 20.7115C73.0063 20.7115 75.9917 18.7605 77.4773 15.9079L75.9465 15.1107C74.7465 17.4151 72.3378 18.9856 69.5638 18.9856V20.7115ZM61.5752 15.7602C63.0337 18.693 66.0622 20.7115 69.5638 20.7115V18.9856C66.7422 18.9856 64.2986 17.3607 63.1205 14.9917L61.5752 15.7602ZM61.5102 16.3961C61.915 16.3961 62.304 16.3196 62.6621 16.1796L62.0336 14.5722C61.8725 14.6352 61.6965 14.6702 61.5102 14.6702V16.3961ZM58.346 13.2319C58.346 14.9794 59.7627 16.3961 61.5102 16.3961V14.6702C60.7159 14.6702 60.0719 14.0263 60.0719 13.2319H58.346ZM61.5102 10.0678C59.7627 10.0678 58.346 11.4844 58.346 13.2319H60.0719C60.0719 12.4376 60.7159 11.7937 61.5102 11.7937V10.0678ZM61.572 10.0684C61.5515 10.068 61.5309 10.0678 61.5102 10.0678V11.7937C61.5197 11.7937 61.5292 11.7938 61.5388 11.794L61.572 10.0684ZM69.5638 2.87729C64.9613 2.87729 61.1742 6.36346 60.6973 10.8398L62.4135 11.0226C62.7979 7.41435 65.8532 4.60318 69.5638 4.60318V2.87729ZM78.4374 10.9084C77.9921 6.39912 74.1898 2.87729 69.5638 2.87729V4.60318C73.2935 4.60318 76.3609 7.44316 76.7198 11.078L78.4374 10.9084ZM77.3789 11.8327C78.012 11.9833 78.4822 12.5538 78.4822 13.2319H80.2081C80.2081 11.7364 79.1714 10.4851 77.7783 10.1537L77.3789 11.8327ZM78.4822 13.2319C78.4822 14.0263 77.8383 14.6702 77.044 14.6702V16.3961C78.7915 16.3961 80.2081 14.9794 80.2081 13.2319H78.4822ZM77.044 14.6702C76.9727 14.6702 76.903 14.6651 76.8354 14.6553L76.5884 16.3634C76.7376 16.385 76.8898 16.3961 77.044 16.3961V14.6702Z" fill="#5A2F0F" mask="url(#path-2-inside-2_508_2255)"/>
<path d="M70.8099 4.19867C71.4484 3.98584 71.9209 3.07121 71.874 2.2832C71.8361 1.64471 71.5708 1.2417 71.2355 1.00622C70.9003 0.770729 70.6024 0.639231 70.1565 0.597872C69.7105 0.556514 69.2555 0.623421 68.8492 0.790132" stroke="#5A2F0F" stroke-width="0.862944" stroke-linecap="round"/>
<circle cx="66.9758" cy="11.7932" r="1.15059" fill="#5A2F0F"/>
<circle cx="73.8791" cy="11.7932" r="1.15059" fill="#5A2F0F"/>
<path d="M70.4272 16.9711C71.6009 16.9711 72.5693 16.0924 72.7106 14.957C72.7302 14.7994 72.5996 14.6699 72.4407 14.6699H68.4136C68.2548 14.6699 68.1241 14.7994 68.1437 14.957C68.285 16.0924 69.2535 16.9711 70.4272 16.9711Z" fill="#5A2F0F"/>
<path d="M67.5513 7.63584C67.5513 7.63584 67.6352 8.78643 68.9032 8.78643C70.1713 8.78643 70.6903 8.01937 70.7214 7.63584C70.7214 7.44408 70.6281 7.06055 70.2552 7.06055C70.0748 7.06055 69.83 7.31898 69.85 7.63584C69.8817 8.13782 70.4068 8.78643 71.6071 8.78643C73.1735 8.78643 72.9591 7.63584 72.9591 7.63584" stroke="#5A2F0F" stroke-width="0.575296" stroke-linecap="round"/>
<g clip-path="url(#clip0_508_2255)">
<path d="M81.3588 9.26452C83.2122 9.26452 84.7147 7.76203 84.7147 5.90863C84.7147 4.05522 83.2122 2.55273 81.3588 2.55273C79.5054 2.55273 78.0029 4.05522 78.0029 5.90863C78.0029 7.76203 79.5054 9.26452 81.3588 9.26452Z" stroke="#5A2F0F" stroke-width="0.862944" stroke-linecap="round" stroke-linejoin="round"/>
<path d="M82.3652 7.25042L81.5551 6.44031C81.4292 6.31447 81.3584 6.14378 81.3584 5.96579V3.89453" stroke="#5A2F0F" stroke-width="0.671178" stroke-linecap="round" stroke-linejoin="round"/>
</g>
<defs>
<clipPath id="clip0_508_2255">
<rect width="8.05414" height="8.05414" fill="white" transform="translate(77.3311 1.88086)"/>
</clipPath>
</defs>
</svg>
