<svg width="328" height="104" viewBox="0 0 328 104" fill="none" xmlns="http://www.w3.org/2000/svg">
<g clip-path="url(#clip0_508_3813)">
<rect width="328" height="104" rx="8" fill="#FFF9F2"/>
<g clip-path="url(#clip1_508_3813)">
<path d="M212.524 81.1904C215.42 76.4374 213.89 70.264 209.191 67.4232C204.493 64.5823 198.32 66.112 195.479 70.865C194.058 73.2688 193.676 75.9457 194.277 78.4042C194.605 79.8246 194.386 81.245 193.676 82.5015L193.567 82.6654C192.037 85.2331 192.857 88.511 195.37 90.0407L195.479 90.0954C197.992 91.6251 201.325 90.8056 202.854 88.2925C203.619 87.036 204.876 86.1619 206.296 85.8341C208.809 85.1785 211.104 83.5942 212.524 81.1904Z" fill="#FFEE92"/>
<path opacity="0.2" d="M195.644 85.2306L200.506 71.9551" stroke="#F2F2F2" stroke-width="0.641815" stroke-miterlimit="10"/>
<path opacity="0.2" d="M198.43 87.748L208.81 78.1328" stroke="#F2F2F2" stroke-width="0.641815" stroke-miterlimit="10"/>
<path d="M196.08 92.445L193.239 90.7514C191.327 89.6041 190.726 87.1457 191.874 85.2882L193.513 82.5566L202.855 88.1837L200.997 91.2431C200.068 92.9367 197.828 93.483 196.08 92.445Z" fill="#92C1FF"/>
<path d="M200.124 72.3379C200.397 73.2667 201.107 73.9769 202.09 73.813C202.473 73.7584 202.8 73.4852 202.964 73.1574C203.128 72.8296 202.964 72.3379 202.637 72.2287C202.309 72.0648 201.872 72.3379 201.708 72.6657C201.544 72.9935 201.599 73.4306 201.708 73.7584C202.145 75.0695 203.456 75.9436 204.822 75.889C205.423 75.8344 206.133 75.452 205.969 74.851C205.86 74.2501 204.877 74.2501 204.549 74.7417C204.221 75.2334 204.385 75.9436 204.713 76.4353C205.095 77.0909 205.805 77.5826 206.57 77.5826C207.335 77.5826 208.646 76.6539 208.045 76.1622C207.499 75.6705 206.461 77.0363 206.734 77.7465C207.007 78.4567 208.318 78.7845 208.919 78.2928" stroke="#92C1FF" stroke-width="0.378325" stroke-miterlimit="10" stroke-linecap="round" stroke-linejoin="round"/>
<path d="M192.803 83.6501C192.748 83.5409 192.694 83.4316 192.803 83.3224C192.912 83.1585 193.076 83.1038 193.24 83.2131C193.295 83.2131 197.774 85.9447 202.527 88.6763C202.691 88.7855 202.691 88.9494 202.637 89.1133C202.527 89.2772 202.363 89.3319 202.2 89.2226C197.447 86.4364 192.967 83.7594 192.912 83.7594C192.857 83.7048 192.857 83.6501 192.803 83.6501Z" fill="#FFEE92"/>
<path d="M192.092 84.8474C192.038 84.7382 191.983 84.6289 192.092 84.5196C192.202 84.3557 192.366 84.3011 192.529 84.4104C192.584 84.4104 197.064 87.142 201.817 89.8735C201.981 89.9828 201.981 90.1467 201.926 90.3106C201.817 90.4745 201.653 90.5291 201.489 90.4199C196.736 87.6336 192.256 84.9567 192.202 84.9567C192.147 84.902 192.147 84.8474 192.092 84.8474Z" fill="#FFEE92"/>
<path d="M191.491 85.9978C191.436 85.8885 191.382 85.7793 191.491 85.67C191.6 85.5061 191.764 85.4515 191.928 85.5608C191.983 85.5608 196.462 88.2923 201.215 91.0239C201.379 91.1332 201.379 91.2971 201.325 91.461C201.215 91.6249 201.051 91.6795 200.887 91.5703C196.135 88.784 191.655 86.1071 191.6 86.1071C191.491 85.9978 191.491 85.9978 191.491 85.9978Z" fill="#FFEE92"/>
<path d="M191.054 87.2009C191 87.0917 190.945 86.9824 191.054 86.8731C191.164 86.7092 191.327 86.6546 191.491 86.7639C191.546 86.7639 195.425 89.2223 200.178 92.0085C200.342 92.1178 200.342 92.2817 200.287 92.4456C200.178 92.6095 200.014 92.6641 199.85 92.5549C195.042 89.7686 191.164 87.3102 191.164 87.3102C191.109 87.2556 191.109 87.2556 191.054 87.2009Z" fill="#FFEE92"/>
</g>
<path d="M24.274 41.106C22.258 40.462 21.362 38.978 21.32 37.536H23.84V36.066H16.882V37.536H19.444C19.402 39.118 18.478 40.714 16.392 41.372L17.302 42.842C18.814 42.352 19.85 41.344 20.424 40.098C20.998 41.232 21.978 42.114 23.392 42.562L24.274 41.106ZM20.186 44.732H24.946V46.608H20.186V44.732ZM18.366 48.05H26.752V43.29H18.366V48.05ZM28.46 38.222H26.752V35.324H24.904V42.772H26.752V39.734H28.46V38.222ZM34.1909 36.304H32.3429V38.18C32.3429 40.686 31.2789 43.178 29.0249 44.144L30.1309 45.67C31.6709 44.942 32.7209 43.556 33.2949 41.834C33.8689 43.416 34.8629 44.69 36.3469 45.362L37.3969 43.864C35.2129 42.926 34.1909 40.574 34.1909 38.18V36.304ZM38.0269 35.296V48.232H39.8749V35.296H38.0269ZM46.4878 40.49H43.9678V37.62H46.4878V40.49ZM48.3078 36.164H42.1618V41.946H48.3078V36.164ZM45.3678 44.634H50.1278V46.608H45.3678V44.634ZM43.5478 48.05H51.9338V43.192H43.5478V48.05ZM53.6418 38.166H51.9338V35.31H50.0858V42.632H51.9338V39.678H53.6418V38.166ZM63.2087 35.296V48.232H65.0567V35.296H63.2087ZM58.1267 36.206C56.1807 36.206 54.7387 37.97 54.7387 40.798C54.7387 43.64 56.1807 45.418 58.1267 45.418C60.0727 45.418 61.5147 43.64 61.5147 40.798C61.5147 37.97 60.0727 36.206 58.1267 36.206ZM58.1267 37.872C59.0787 37.872 59.7367 38.894 59.7367 40.798C59.7367 42.716 59.0787 43.738 58.1267 43.738C57.1747 43.738 56.5167 42.716 56.5167 40.798C56.5167 38.894 57.1747 37.872 58.1267 37.872ZM78.3503 41.232C76.3063 40.56 75.3543 39.048 75.3263 37.536H77.8743V36.08H70.8603V37.536H73.4503C73.4223 39.132 72.4703 40.77 70.3703 41.442L71.3083 42.884C72.8063 42.394 73.8423 41.386 74.4163 40.126C75.0043 41.274 75.9843 42.198 77.4123 42.646L78.3503 41.232ZM72.2463 45.124H79.1623V48.218H81.0243V43.654H72.2463V45.124ZM79.1623 35.31V43.08H81.0243V35.31H79.1623ZM90.6753 40.91C88.7573 40.266 87.8613 38.796 87.7773 37.368H90.2693V35.898H83.3393V37.368H85.8593C85.7753 38.922 84.8373 40.476 82.8353 41.148L83.7733 42.604C85.2713 42.1 86.2793 41.078 86.8533 39.818C87.3993 40.966 88.3653 41.89 89.7793 42.352L90.6753 40.91ZM91.8513 46.58H86.9653V45.474H91.8513V46.58ZM91.8513 44.06H86.9653V42.884H85.1453V48.05H93.6853V42.884H91.8513V44.06ZM91.8373 35.31V38.194H89.8913V39.692H91.8373V42.366H93.6853V35.31H91.8373ZM102.863 44.634H107.819V46.608H102.863V44.634ZM101.043 48.05H109.625V43.192H101.043V48.05ZM102.401 40.714C101.463 40.714 100.777 40.112 100.777 39.104C100.777 38.124 101.463 37.55 102.401 37.55C103.353 37.55 104.039 38.124 104.039 39.104C104.039 40.112 103.353 40.714 102.401 40.714ZM107.777 35.31V38.348H105.719C105.369 36.948 104.053 35.982 102.401 35.982C100.483 35.982 99.0129 37.298 99.0129 39.104C99.0129 40.952 100.483 42.254 102.401 42.254C104.067 42.254 105.383 41.288 105.733 39.846H107.777V42.618H109.625V35.31H107.777ZM120.368 44.83H122.216V35.31H120.368V38.054H118.002V39.552H120.368V44.83ZM119.136 41.526C117.12 40.812 116.252 39.174 116.252 37.494V36.094H114.376V37.48C114.376 39.314 113.48 41.106 111.352 41.82L112.318 43.262C113.816 42.716 114.81 41.666 115.356 40.336C115.888 41.526 116.812 42.464 118.156 42.954L119.136 41.526ZM115.552 46.51V43.878H113.704V47.98H122.496V46.51H115.552ZM131.629 36.668H128.745V35.296H126.883V36.668H124.027V38.11H131.615L131.629 36.668ZM126.421 41.05C126.421 40.35 126.995 39.972 127.821 39.972C128.633 39.972 129.221 40.35 129.221 41.05C129.221 41.764 128.633 42.142 127.821 42.142C126.995 42.142 126.421 41.764 126.421 41.05ZM130.985 41.05C130.985 39.594 129.669 38.572 127.821 38.572C125.973 38.572 124.657 39.594 124.657 41.05C124.657 42.534 125.973 43.542 127.821 43.542C129.669 43.542 130.985 42.534 130.985 41.05ZM127.709 44.242H125.861V47.98H134.639V46.51H127.709V44.242ZM134.177 39.244V35.31H132.329V44.956H134.177V40.77H135.885V39.244H134.177ZM26.976 59.516H19.92V56.534H18.072V60.986H26.976V59.516ZM22.398 67.762C20.676 67.762 19.794 67.454 19.794 66.782C19.794 66.11 20.676 65.802 22.398 65.802C24.12 65.802 25.002 66.11 25.002 66.782C25.002 67.454 24.12 67.762 22.398 67.762ZM22.398 64.388C19.612 64.388 17.932 65.27 17.932 66.782C17.932 68.294 19.612 69.176 22.398 69.176C25.184 69.176 26.878 68.294 26.878 66.782C26.878 65.27 25.184 64.388 22.398 64.388ZM16.616 62.078V63.548H28.278V62.078H16.616ZM35.7729 62.148C34.4989 62.386 33.3649 62.442 31.5169 62.456V61.112H35.3109V57.038H29.6689V58.522H33.4909V59.74H29.6829V63.94H30.6769C33.1269 63.94 34.4569 63.898 35.9549 63.618L35.7729 62.148ZM31.1529 66.306H38.1249V69.218H39.9729V64.836H31.1529V66.306ZM38.1249 56.324V58.088H36.0529V59.572H38.1249V60.846H36.0529V62.316H38.1249V64.262H39.9729V56.31L38.1249 56.324ZM52.4938 56.31H50.6318V63.604H52.4938V56.31ZM45.4658 58.508C46.4458 58.508 47.1738 59.096 47.1738 60.062C47.1738 61.028 46.4458 61.616 45.4658 61.616C44.4858 61.616 43.7718 61.028 43.7718 60.062C43.7718 59.096 44.4858 58.508 45.4658 58.508ZM45.4658 63.156C47.4818 63.156 48.9798 61.868 48.9798 60.062C48.9798 58.256 47.4818 56.968 45.4658 56.968C43.4778 56.968 41.9658 58.256 41.9658 60.062C41.9658 61.868 43.4778 63.156 45.4658 63.156ZM51.1918 64.136H49.3718V64.57C49.3718 65.522 48.9378 66.6 47.9018 67.37C46.8798 66.656 46.4738 65.592 46.4738 64.57V64.136H44.6818V64.57C44.6818 65.816 43.9818 67.09 42.2738 67.664L43.1838 69.008C44.3458 68.588 45.1298 67.832 45.5778 66.894C45.9978 67.874 46.7398 68.714 47.9158 69.148C49.0918 68.686 49.8338 67.832 50.2538 66.852C50.6878 67.832 51.4858 68.602 52.7038 69.008L53.5998 67.664C51.8918 67.146 51.1918 65.9 51.1918 64.57V64.136ZM64.7627 59.796H57.6647V56.772H55.8167V61.266H64.7627V59.796ZM57.5527 65.088H55.6907V68.924H64.8327V67.454H57.5527V65.088ZM54.3747 62.582V64.066H66.0507V62.582H54.3747ZM75.3123 57.304H73.4643V59.18C73.4643 61.686 72.4003 64.178 70.1463 65.144L71.2523 66.67C72.7923 65.942 73.8423 64.556 74.4163 62.834C74.9903 64.416 75.9843 65.69 77.4683 66.362L78.5183 64.864C76.3343 63.926 75.3123 61.574 75.3123 59.18V57.304ZM79.1483 56.296V69.232H80.9963V56.296H79.1483ZM85.3273 62.414H89.0233V60.972H85.3273V58.872H89.4573V57.388H83.4933V66.306H84.5433C86.7133 66.306 88.3653 66.264 90.2273 65.97L90.0593 64.486C88.4773 64.738 87.0633 64.808 85.3273 64.822V62.414ZM91.8793 56.296V60.846H89.6673V62.33H91.8793V69.232H93.7273V56.296H91.8793ZM105.786 59.166H98.7862V58.032H105.688V56.562H96.9522V60.622H105.786V59.166ZM98.6742 66.908H105.73V63.492H96.8262V64.878H103.91V65.606H96.8402V69.092H106.066V67.678H98.6742V66.908ZM95.5102 61.308V62.764H107.172V61.308H95.5102ZM113.911 57.85C115.787 57.85 116.669 58.116 116.669 58.69C116.669 59.292 115.787 59.544 113.911 59.544C112.049 59.544 111.167 59.292 111.167 58.69C111.167 58.116 112.049 57.85 113.911 57.85ZM113.911 60.888C116.865 60.888 118.587 60.118 118.587 58.69C118.587 57.276 116.865 56.492 113.911 56.492C110.971 56.492 109.249 57.276 109.249 58.69C109.249 60.118 110.971 60.888 113.911 60.888ZM111.265 66.992H118.321V63.674H109.417V65.032H116.501V65.718H109.431V69.106H118.657V67.72H111.265V66.992ZM108.087 61.504V62.946H119.735V61.504H108.087ZM128.731 62.134H126.211V58.83H128.731V62.134ZM130.551 57.374H124.405V63.59H130.551V57.374ZM127.709 64.794H125.861V68.98H134.639V67.51H127.709V64.794ZM134.177 60.034V56.31H132.329V65.718H134.177V61.546H135.885V60.034H134.177ZM138.858 57.528H137.01V66.04H138.13C140.006 66.04 142.078 65.928 144.22 65.48L144.038 63.968C142.232 64.318 140.482 64.458 138.858 64.5V57.528ZM148.518 61.168H146.712V56.296H144.864V69.176H146.712V62.694H148.518V61.168ZM152.275 60.566H157.791V62.372H152.275V60.566ZM155.957 66.208V63.842H159.611V57.108H157.791V59.11H152.275V57.108H150.441V63.842H154.109V66.208H149.209V67.706H160.885V66.208H155.957ZM165.915 57.43H164.137V59.6C164.137 61.798 163.451 64.108 161.561 65.256L162.667 66.642C163.829 65.942 164.585 64.71 165.033 63.282C165.439 64.584 166.125 65.676 167.217 66.348L168.225 64.92C166.475 63.758 165.915 61.616 165.915 59.53V57.43ZM168.491 60.664H166.867V62.162H168.491V68.63H170.213V56.52H168.491V60.664ZM171.109 56.31V69.204H172.859V56.31H171.109ZM178.8 63.744C179.248 63.828 179.71 63.87 180.214 63.87C180.718 63.87 181.194 63.828 181.642 63.744V66.208H178.8V63.744ZM180.214 58.396C182.006 58.396 183.21 59.124 183.21 60.412C183.21 61.686 182.006 62.428 180.214 62.428C178.422 62.428 177.232 61.686 177.232 60.412C177.232 59.124 178.422 58.396 180.214 58.396ZM183.476 66.208V63.058C184.442 62.456 185.03 61.532 185.03 60.412C185.03 58.298 183 56.94 180.214 56.94C177.442 56.94 175.412 58.298 175.412 60.412C175.398 61.532 175.986 62.456 176.966 63.058V66.208H174.39V67.706H186.066V66.208H183.476ZM189.221 64.682H187.555L187.205 58.004H189.571L189.221 64.682ZM187.177 67.02C187.177 66.5907 187.294 66.292 187.527 66.124C187.761 65.9467 188.045 65.858 188.381 65.858C188.708 65.858 188.988 65.9467 189.221 66.124C189.455 66.292 189.571 66.5907 189.571 67.02C189.571 67.4307 189.455 67.7293 189.221 67.916C188.988 68.0933 188.708 68.182 188.381 68.182C188.045 68.182 187.761 68.0933 187.527 67.916C187.294 67.7293 187.177 67.4307 187.177 67.02Z" fill="#3A3A3A"/>
<g clip-path="url(#clip2_508_3813)">
<path d="M37.197 91.9076C37.197 91.9076 29.4434 88.318 26.1889 92.1469C22.9343 95.9759 22.5993 96.6938 23.0779 97.9382C23.6522 99.5655 30.3528 98.8954 30.3528 98.8954L37.197 91.9076Z" fill="#83F3D4"/>
<path d="M59.6921 94.204C62.4681 90.9973 65.2441 86.4026 63.3775 83.9138C61.0801 80.7549 55.7196 82.1429 51.5078 83.6745C53.4701 87.7427 56.3418 91.2844 59.6921 94.204Z" fill="#FFA26E"/>
<path d="M29.0608 99.8047C29.0608 99.8047 19.3928 102.485 18.8663 106.457C18.3398 110.43 22.9824 109.09 22.9824 109.09C22.9824 109.09 15.1331 112.632 17.4305 116.652C19.68 120.672 24.9447 115.408 24.9447 115.408C24.9447 115.408 24.4661 116.556 25.902 118.614C28.4386 122.252 36.6229 110.621 36.6229 110.621L29.0608 99.8047Z" fill="#FFA26E"/>
<path d="M30.3052 101.576C30.3052 101.576 23.6524 103.395 23.3174 106.171C22.9345 108.899 26.1412 107.99 26.1412 107.99C26.1412 107.99 20.7807 110.431 22.3123 113.159C23.8917 115.935 27.4814 112.297 27.4814 112.297C27.4814 112.297 27.1463 113.063 28.1514 114.499C29.8744 116.988 35.5221 108.995 35.5221 108.995L30.3052 101.576Z" fill="#FFEE92"/>
<path d="M51.5081 83.6758C33.0335 92.0515 29.061 99.8051 29.061 99.8051C29.9225 106.554 36.6232 110.622 36.6232 110.622C36.1445 110.957 45.2382 110.526 59.6924 94.2532C56.3421 91.2858 53.4704 87.744 51.5081 83.6758Z" fill="#92C1FF"/>
<path d="M47.3445 102.246C45.1429 103.778 41.4575 103.634 39.7345 101.193C38.0115 98.7523 37.8679 95.2584 40.6439 93.296C42.8455 91.7645 46.2915 92.1952 48.0145 94.6362C49.7376 97.0771 49.594 100.715 47.3445 102.246Z" fill="#83F3D4"/>
<path d="M47.2487 95.2582C46.3872 94.0617 45.0471 93.4395 43.707 93.4395C42.8455 93.4395 41.9839 93.6788 41.266 94.1574C39.0165 95.7368 39.1123 98.5606 40.5481 100.571C41.6968 102.198 43.8984 102.581 45.6693 102.007C46.0522 101.863 46.4351 101.672 46.7701 101.48C48.4931 100.188 48.6367 97.2205 47.2487 95.2582Z" fill="#F2F2F2"/>
</g>
<g clip-path="url(#clip3_508_3813)">
<path d="M21.4897 -5.39011C30.7878 -2.65636 34.7186 4.63647 36.3761 10.3388C37.1044 12.8644 37.2356 15.9308 37.4375 17.9057C37.1584 17.9918 36.8937 18.1244 36.6147 18.2105C35.978 18.4579 35.3413 18.7053 34.7189 18.9992C34.5922 17.1028 34.2612 14.7093 33.5185 12.1372C31.3589 4.80722 27.0041 -0.0628866 20.5117 -2.2871C8.58251 -6.45009 1.32783 0.575793 -4.3348 7.3142C-4.61779 6.8922 -4.93295 6.53105 -5.21595 6.10904C-5.48459 5.73354 -5.79975 5.37239 -6.1149 5.01124C-0.105471 -2.08883 7.58902 -9.50507 21.4897 -5.39011Z" fill="#FFA26E"/>
<path d="M20.8687 -3.10957C29.5514 -0.389669 33.0241 6.73892 34.4238 12.2661C35.0482 14.62 35.2753 16.8419 35.4342 18.6774C34.5328 19.0573 33.6779 19.423 32.7908 19.8494C32.6928 18.0461 32.4514 15.7778 31.8413 13.4703C30.029 6.44065 25.975 1.88519 19.8155 -0.0852275C9.2073 -3.43341 2.26676 2.62971 -3.21728 8.9565C-3.75457 8.2055 -4.27752 7.50101 -4.81482 6.75001C1.09468 -0.0136418 8.96136 -6.87182 20.8687 -3.10957Z" fill="#83F3D4"/>
<path d="M20.1838 -0.707781C28.3831 1.601 31.4941 8.38279 32.6682 13.674C33.1279 15.8241 33.3441 17.8456 33.4277 19.6024C32.5872 20.0145 31.7467 20.4266 30.8596 20.8531C30.8047 19.1893 30.6206 17.107 30.1753 15.0034C28.6494 8.24184 24.9427 3.98668 19.1449 2.36307C9.81461 -0.309822 3.29557 4.80834 -1.97772 10.6627C-2.48632 10.0047 -2.96276 9.28582 -3.47136 8.62783C2.25954 2.27581 9.70472 -3.63742 20.1838 -0.707781Z" fill="#F882AD"/>
<path d="M19.0096 2.25269C26.9224 4.29333 29.7613 10.8535 30.785 15.9873C31.119 17.5651 31.2526 19.1536 31.3288 20.5562C31.1571 20.6601 30.9711 20.7175 30.753 20.8358C30.0841 21.144 29.4761 21.4844 28.8215 21.8391C28.7597 20.483 28.626 18.8945 28.3064 17.3633C26.9774 10.7447 23.4355 6.69336 17.849 5.25923C9.8896 3.23293 3.93849 7.05538 -0.931108 12.0721C-1.26061 11.6644 -1.60446 11.2103 -1.93396 10.8026C-2.09871 10.5988 -2.26346 10.395 -2.39606 10.1303C3.05633 4.5263 9.88707 -0.0768528 19.0096 2.25269Z" fill="#92C1FF"/>
<path d="M44.7857 25.2167C45.0895 24.7156 45.7133 21.62 45.4224 20.1818C45.1171 18.6971 43.946 17.3776 42.443 17.1283C40.9865 16.8647 39.7239 17.5598 39.3673 19.045C39.4593 17.6924 39.6368 15.9568 39.0847 14.4974C38.3425 12.5872 36.9716 11.9406 35.433 11.906C34.1091 11.907 32.6749 12.7061 31.9565 13.8445C31.2847 14.9685 30.978 16.2855 30.7321 17.6347C31.0675 16.4107 30.3293 15.0086 29.1553 14.505C27.9813 14.0014 26.5431 14.2923 25.5992 15.1947C24.6409 16.0506 24.1803 17.3642 24.2135 18.6272C23.9082 17.1425 22.0183 16.2995 20.6053 16.8373C19.1924 17.3751 18.3098 18.9717 18.3682 20.4816C18.4266 21.9915 19.0619 24.5458 19.5883 25.0965C20.0108 25.4754 43.2912 26.6456 44.7857 25.2167Z" fill="#FFEE92"/>
<path d="M12.8736 13.5687C13.1774 13.0676 13.8621 10.0041 13.5568 8.51945C13.2515 7.03475 12.0804 5.71531 10.6239 5.45164C9.15307 5.14147 7.90487 5.8831 7.53384 7.3218C7.62584 5.96919 7.84992 4.2193 7.25126 2.77419C6.50912 0.864028 5.17036 0.156579 3.58522 0.136324C2.24696 0.0908326 0.827079 0.936363 0.108743 2.07476C-0.609593 3.21317 -0.869799 4.51581 -1.13001 5.81846C-0.748093 4.58012 -1.53277 3.1924 -2.66028 2.67444C-3.8343 2.17082 -5.27249 2.46175 -6.23078 3.31766C-7.18907 4.17357 -7.64965 5.4871 -7.66298 6.76451C-7.96826 5.27981 -9.81166 4.42247 -11.2246 4.96027C-12.6519 5.45157 -13.5345 7.0481 -13.4761 8.55804C-13.4177 10.068 -12.7824 12.6223 -12.3025 13.1873C-11.8656 13.6127 11.3647 14.9511 12.8736 13.5687Z" fill="#FFEE92"/>
</g>
<g clip-path="url(#clip4_508_3813)">
<path d="M254.589 44.7371C255.239 44.0146 255.817 43.3644 256.611 42.7864C257.045 42.4252 257.623 42.6419 257.767 43.1477C258.129 44.1591 258.49 45.1706 258.779 46.2543C258.923 46.6878 258.273 46.9045 258.056 46.5433C257.695 45.8931 257.334 45.1706 256.9 44.5204C256.467 44.9539 256.033 45.3873 255.528 45.8208C254.878 46.3988 254.011 45.3873 254.589 44.7371ZM249.892 44.0146C250.398 43.5812 250.832 43.1477 251.265 42.7142C251.626 43.3644 251.988 44.0869 252.421 44.7371C252.638 45.0984 253.288 44.8816 253.144 44.4481C252.782 43.4367 252.421 42.4252 252.132 41.3415C251.988 40.8357 251.41 40.619 250.976 40.9802C250.254 41.5582 249.603 42.2085 248.953 42.9309C248.303 43.6534 249.17 44.6649 249.892 44.0146ZM244.257 42.2807C244.763 41.8472 245.196 41.4137 245.63 40.9802C245.991 41.6305 246.352 42.3529 246.786 43.0032C247.003 43.3644 247.653 43.1477 247.508 42.7142C247.147 41.7027 246.786 40.6912 246.497 39.6075C246.352 39.1018 245.774 38.885 245.341 39.2463C244.618 39.8243 243.968 40.4745 243.318 41.197C242.668 41.8472 243.535 42.8587 244.257 42.2807ZM238.55 40.4745C239.055 40.041 239.489 39.6075 239.922 39.174C240.283 39.8243 240.645 40.5467 241.078 41.197C241.295 41.5582 241.945 41.3415 241.801 40.908C241.439 39.8965 241.078 38.885 240.789 37.8013C240.645 37.2956 240.067 37.0789 239.633 37.4401C238.911 38.0181 238.261 38.6683 237.61 39.3908C236.96 40.1133 237.827 41.1247 238.55 40.4745ZM232.914 38.7406C233.42 38.3071 233.853 37.8736 234.287 37.4401C234.648 38.0903 235.009 38.8128 235.443 39.463C235.66 39.8243 236.31 39.6075 236.165 39.174C235.804 38.1626 235.443 37.1511 235.154 36.0674C235.009 35.5617 234.431 35.3449 233.998 35.7062C233.275 36.2841 232.625 36.9344 231.975 37.6568C231.325 38.3793 232.192 39.3908 232.914 38.7406ZM227.207 37.0066C227.712 36.5731 228.146 36.1396 228.579 35.7062C228.941 36.3564 229.302 37.0789 229.735 37.7291C229.952 38.0903 230.602 37.8736 230.458 37.4401C230.097 36.4286 229.735 35.4172 229.446 34.3334C229.302 33.8277 228.724 33.611 228.29 33.9722C227.568 34.5502 226.918 35.2004 226.267 35.9229C225.617 36.6454 226.484 37.5846 227.207 37.0066ZM221.571 35.2004C222.077 34.7669 222.511 34.3334 222.944 33.9C223.305 34.5502 223.667 35.2727 224.1 35.9229C224.317 36.2841 224.967 36.0674 224.822 35.6339C224.461 34.6224 224.1 33.611 223.811 32.5273C223.667 32.0215 223.089 31.8048 222.655 32.166C221.933 32.744 221.282 33.3942 220.632 34.1167C219.982 34.8392 220.849 35.8506 221.571 35.2004ZM215.864 33.4665C216.369 33.033 216.803 32.5995 217.236 32.166C217.598 32.8162 217.959 33.5387 218.392 34.1889C218.609 34.5502 219.259 34.3334 219.115 33.9C218.754 32.8885 218.392 31.877 218.103 30.7933C217.959 30.2876 217.381 30.0708 216.947 30.4321C216.225 31.0101 215.575 31.6603 214.925 32.3828C214.274 33.1052 215.141 34.1167 215.864 33.4665ZM210.156 31.7325C210.662 31.299 211.095 30.8656 211.529 30.4321C211.89 31.0823 212.251 31.8048 212.685 32.455C212.902 32.8162 213.552 32.5995 213.407 32.166C213.046 31.1545 212.685 30.1431 212.396 29.0594C212.251 28.5536 211.673 28.3369 211.24 28.6981C210.517 29.2761 209.867 29.9263 209.217 30.6488C208.567 31.3713 209.434 32.3828 210.156 31.7325ZM256.106 39.9688C256.756 39.2463 257.334 38.5961 258.129 38.0181C258.562 37.6568 259.14 37.8736 259.285 38.3793C259.646 39.3908 260.007 40.4023 260.296 41.486C260.441 41.9195 259.79 42.1362 259.574 41.775C259.212 41.1247 258.851 40.4023 258.418 39.752C257.984 40.1855 257.551 40.619 257.045 41.0525C256.322 41.7027 255.455 40.6912 256.106 39.9688ZM251.41 39.3185C251.915 38.8851 252.349 38.4516 252.782 38.0181C253.144 38.6683 253.505 39.3908 253.938 40.041C254.155 40.4023 254.805 40.1855 254.661 39.752C254.3 38.7406 253.938 37.7291 253.649 36.6454C253.505 36.1396 252.927 35.9229 252.493 36.2841C251.771 36.8621 251.121 37.5123 250.47 38.2348C249.82 38.8851 250.687 39.8965 251.41 39.3185ZM245.702 37.5123C246.208 37.0789 246.641 36.6454 247.075 36.2119C247.436 36.8621 247.797 37.5846 248.231 38.2348C248.447 38.5961 249.098 38.3793 248.953 37.9458C248.592 36.9344 248.231 35.9229 247.942 34.8392C247.797 34.3334 247.219 34.1167 246.786 34.4779C246.063 35.0559 245.413 35.7062 244.763 36.4286C244.113 37.1511 244.98 38.1626 245.702 37.5123ZM240.067 35.7784C240.572 35.3449 241.006 34.9114 241.439 34.4779C241.801 35.1282 242.162 35.8507 242.595 36.5009C242.812 36.8621 243.462 36.6454 243.318 36.2119C242.957 35.2004 242.595 34.1889 242.306 33.1052C242.162 32.5995 241.584 32.3828 241.15 32.744C240.428 33.322 239.778 33.9722 239.128 34.6947C238.477 35.4172 239.344 36.4286 240.067 35.7784ZM234.359 34.0445C234.865 33.611 235.298 33.1775 235.732 32.744C236.093 33.3942 236.454 34.1167 236.888 34.7669C237.105 35.1282 237.755 34.9114 237.61 34.4779C237.249 33.4665 236.888 32.455 236.599 31.3713C236.454 30.8656 235.876 30.6488 235.443 31.0101C234.72 31.588 234.07 32.2383 233.42 32.9607C232.77 33.611 233.637 34.6224 234.359 34.0445ZM228.652 32.2383C229.157 31.8048 229.591 31.3713 230.024 30.9378C230.386 31.588 230.747 32.3105 231.18 32.9607C231.397 33.322 232.047 33.1052 231.903 32.6717C231.542 31.6603 231.18 30.6488 230.891 29.5651C230.747 29.0594 230.169 28.8426 229.735 29.2039C229.013 29.7818 228.363 30.4321 227.712 31.1545C227.062 31.877 227.929 32.8885 228.652 32.2383ZM223.016 30.5043C223.522 30.0708 223.955 29.6373 224.389 29.2039C224.75 29.8541 225.111 30.5766 225.545 31.2268C225.762 31.588 226.412 31.3713 226.267 30.9378C225.906 29.9263 225.545 28.9149 225.256 27.8312C225.111 27.3254 224.533 27.1087 224.1 27.4699C223.378 28.0479 222.727 28.6981 222.077 29.4206C221.427 30.1431 222.294 31.1545 223.016 30.5043ZM217.309 28.7704C217.814 28.3369 218.248 27.9034 218.681 27.4699C219.043 28.1201 219.404 28.8426 219.837 29.4929C220.054 29.8541 220.704 29.6373 220.56 29.2039C220.199 28.1924 219.837 27.1809 219.548 26.0972C219.404 25.5915 218.826 25.3747 218.392 25.736C217.67 26.3139 217.02 26.9642 216.369 27.6867C215.719 28.3369 216.586 29.3484 217.309 28.7704ZM211.673 26.9642C212.179 26.5307 212.613 26.0972 213.046 25.6637C213.407 26.314 213.769 27.0364 214.202 27.6867C214.419 28.0479 215.069 27.8312 214.925 27.3977C214.563 26.3862 214.202 25.3747 213.913 24.291C213.769 23.7853 213.191 23.5685 212.757 23.9298C212.035 24.5078 211.384 25.158 210.734 25.8805C210.084 26.6029 210.951 27.6144 211.673 26.9642ZM257.551 35.2727C258.201 34.5502 258.779 33.9 259.574 33.322C260.007 32.9607 260.585 33.1775 260.73 33.6832C261.091 34.6947 261.452 35.7062 261.741 36.7899C261.886 37.2234 261.235 37.4401 261.019 37.0789C260.657 36.4286 260.296 35.7062 259.863 35.0559C259.429 35.4894 258.996 35.9229 258.49 36.3564C257.84 36.9344 256.973 35.9229 257.551 35.2727ZM252.855 34.5502C253.36 34.1167 253.794 33.6832 254.227 33.2497C254.589 33.9 254.95 34.6224 255.383 35.2727C255.6 35.6339 256.25 35.4172 256.106 34.9837C255.744 33.9722 255.383 32.9607 255.094 31.877C254.95 31.3713 254.372 31.1545 253.938 31.5158C253.216 32.0938 252.566 32.744 251.915 33.4665C251.265 34.1889 252.132 35.2004 252.855 34.5502ZM247.147 32.8162C247.653 32.3828 248.086 31.9493 248.52 31.5158C248.881 32.166 249.242 32.8885 249.676 33.5387C249.892 33.9 250.543 33.6832 250.398 33.2497C250.037 32.2383 249.676 31.2268 249.387 30.1431C249.242 29.6373 248.664 29.4206 248.231 29.7818C247.508 30.3598 246.858 31.0101 246.208 31.7325C245.558 32.455 246.425 33.4665 247.147 32.8162ZM241.512 31.0823C242.017 30.6488 242.451 30.2153 242.884 29.7818C243.246 30.4321 243.607 31.1545 244.04 31.8048C244.257 32.166 244.907 31.9493 244.763 31.5158C244.402 30.5043 244.04 29.4929 243.751 28.4091C243.607 27.9034 243.029 27.6867 242.595 28.0479C241.873 28.6259 241.223 29.2761 240.572 29.9986C239.922 30.6488 240.789 31.6603 241.512 31.0823ZM235.804 29.2761C236.31 28.8426 236.743 28.4091 237.177 27.9756C237.538 28.6259 237.899 29.3484 238.333 29.9986C238.55 30.3598 239.2 30.1431 239.055 29.7096C238.694 28.6981 238.333 27.6867 238.044 26.6029C237.899 26.0972 237.321 25.8805 236.888 26.2417C236.165 26.8197 235.515 27.4699 234.865 28.1924C234.215 28.9149 235.082 29.9263 235.804 29.2761ZM230.169 27.5422C230.675 27.1087 231.108 26.6752 231.542 26.2417C231.903 26.8919 232.264 27.6144 232.697 28.2646C232.914 28.6259 233.564 28.4091 233.42 27.9756C233.059 26.9642 232.697 25.9527 232.408 24.869C232.264 24.3633 231.686 24.1465 231.253 24.5078C230.53 25.0857 229.88 25.736 229.23 26.4584C228.579 27.1809 229.446 28.1924 230.169 27.5422ZM224.461 25.8082C224.967 25.3747 225.4 24.9412 225.834 24.5078C226.195 25.158 226.556 25.8805 226.99 26.5307C227.207 26.8919 227.857 26.6752 227.712 26.2417C227.351 25.2302 226.99 24.2188 226.701 23.1351C226.556 22.6293 225.978 22.4126 225.545 22.7738C224.822 23.3518 224.172 24.002 223.522 24.7245C222.872 25.3747 223.739 26.3862 224.461 25.8082ZM218.826 24.002C219.332 23.5685 219.765 23.1351 220.199 22.7016C220.56 23.3518 220.921 24.0743 221.355 24.7245C221.571 25.0857 222.222 24.869 222.077 24.4355C221.716 23.424 221.355 22.4126 221.066 21.3289C220.921 20.8231 220.343 20.6064 219.91 20.9676C219.187 21.5456 218.537 22.1958 217.887 22.9183C217.236 23.6408 218.103 24.6523 218.826 24.002ZM213.118 22.2681C213.624 21.8346 214.058 21.4011 214.491 20.9676C214.852 21.6179 215.214 22.3403 215.647 22.9906C215.864 23.3518 216.514 23.1351 216.369 22.7016C216.008 21.6901 215.647 20.6786 215.358 19.5949C215.214 19.0892 214.636 18.8724 214.202 19.2337C213.48 19.8117 212.829 20.4619 212.179 21.1844C211.529 21.9068 212.396 22.9183 213.118 22.2681ZM258.996 30.5043C259.646 29.7818 260.224 29.1316 261.019 28.5536C261.452 28.1924 262.03 28.4091 262.175 28.9149C262.536 29.9263 262.897 30.9378 263.186 32.0215C263.33 32.455 262.68 32.6717 262.464 32.3105C262.102 31.6603 261.741 30.9378 261.308 30.2876C260.874 30.7211 260.441 31.1545 259.935 31.588C259.285 32.2383 258.418 31.2268 258.996 30.5043ZM254.3 29.8541C254.805 29.4206 255.239 28.9871 255.672 28.5536C256.033 29.2039 256.395 29.9263 256.828 30.5766C257.045 30.9378 257.695 30.7211 257.551 30.2876C257.189 29.2761 256.828 28.2646 256.539 27.1809C256.395 26.6752 255.817 26.4584 255.383 26.8197C254.661 27.3977 254.011 28.0479 253.36 28.7704C252.71 29.4929 253.577 30.5043 254.3 29.8541ZM248.664 28.1201C249.17 27.6867 249.603 27.2532 250.037 26.8197C250.398 27.4699 250.759 28.1924 251.193 28.8426C251.41 29.2039 252.06 28.9871 251.915 28.5536C251.554 27.5422 251.193 26.5307 250.904 25.447C250.759 24.9412 250.181 24.7245 249.748 25.0857C249.025 25.6637 248.375 26.3139 247.725 27.0364C247.075 27.6867 247.942 28.6981 248.664 28.1201ZM242.957 26.3139C243.462 25.8805 243.896 25.447 244.329 25.0135C244.691 25.6637 245.052 26.3862 245.485 27.0364C245.702 27.3977 246.352 27.1809 246.208 26.7474C245.847 25.736 245.485 24.7245 245.196 23.6408C245.052 23.1351 244.474 22.9183 244.04 23.2795C243.318 23.8575 242.668 24.5078 242.017 25.2302C241.367 25.9527 242.234 26.9642 242.957 26.3139ZM237.321 24.58C237.827 24.1465 238.261 23.713 238.694 23.2795C239.055 23.9298 239.417 24.6523 239.85 25.3025C240.067 25.6637 240.717 25.447 240.572 25.0135C240.211 24.002 239.85 22.9906 239.561 21.9068C239.417 21.4011 238.839 21.1844 238.405 21.5456C237.683 22.1236 237.032 22.7738 236.382 23.4963C235.732 24.2188 236.599 25.2302 237.321 24.58ZM231.614 22.8461C232.119 22.4126 232.553 21.9791 232.986 21.5456C233.348 22.1958 233.709 22.9183 234.142 23.5685C234.359 23.9298 235.009 23.713 234.865 23.2795C234.504 22.2681 234.142 21.2566 233.853 20.1729C233.709 19.6672 233.131 19.4504 232.697 19.8117C231.975 20.3896 231.325 21.0399 230.675 21.7623C230.024 22.4126 230.891 23.424 231.614 22.8461ZM225.906 21.0399C226.412 20.6064 226.845 20.1729 227.279 19.7394C227.64 20.3896 228.001 21.1121 228.435 21.7623C228.652 22.1236 229.302 21.9068 229.157 21.4734C228.796 20.4619 228.435 19.4504 228.146 18.3667C228.001 17.861 227.423 17.6442 226.99 18.0055C226.267 18.5834 225.617 19.2337 224.967 19.9562C224.317 20.6786 225.184 21.6901 225.906 21.0399ZM220.271 19.3059C220.777 18.8724 221.21 18.4389 221.644 18.0055C222.005 18.6557 222.366 19.3782 222.8 20.0284C223.016 20.3896 223.667 20.1729 223.522 19.7394C223.161 18.7279 222.8 17.7165 222.511 16.6328C222.366 16.127 221.788 15.9103 221.355 16.2715C220.632 16.8495 219.982 17.4997 219.332 18.2222C218.681 18.9447 219.548 19.9562 220.271 19.3059ZM214.563 17.572C215.069 17.1385 215.503 16.705 215.936 16.2715C216.297 16.9217 216.658 17.6442 217.092 18.2945C217.309 18.6557 217.959 18.4389 217.814 18.0055C217.453 16.994 217.092 15.9825 216.803 14.8988C216.658 14.3931 216.08 14.1763 215.647 14.5376C214.925 15.1156 214.274 15.7658 213.624 16.4883C212.974 17.1385 213.841 18.15 214.563 17.572ZM260.513 25.8082C261.163 25.0857 261.741 24.4355 262.536 23.8575C262.969 23.4963 263.547 23.713 263.692 24.2188C264.053 25.2302 264.414 26.2417 264.703 27.3254C264.848 27.7589 264.197 27.9756 263.981 27.6144C263.619 26.9642 263.258 26.2417 262.825 25.5915C262.391 26.025 261.958 26.4584 261.452 26.8919C260.73 27.4699 259.863 26.4584 260.513 25.8082ZM255.817 25.0857C256.322 24.6523 256.756 24.2188 257.189 23.7853C257.551 24.4355 257.912 25.158 258.345 25.8082C258.562 26.1695 259.212 25.9527 259.068 25.5192C258.707 24.5078 258.345 23.4963 258.056 22.4126C257.912 21.9068 257.334 21.6901 256.9 22.0513C256.178 22.6293 255.528 23.2795 254.878 24.002C254.227 24.7245 255.094 25.736 255.817 25.0857ZM250.109 23.3518C250.615 22.9183 251.048 22.4848 251.482 22.0513C251.843 22.7016 252.204 23.424 252.638 24.0743C252.855 24.4355 253.505 24.2188 253.36 23.7853C252.999 22.7738 252.638 21.7623 252.349 20.6786C252.204 20.1729 251.626 19.9562 251.193 20.3174C250.47 20.8954 249.82 21.5456 249.17 22.2681C248.52 22.9906 249.387 24.002 250.109 23.3518ZM244.402 21.6178C244.907 21.1844 245.341 20.7509 245.774 20.3174C246.136 20.9676 246.497 21.6901 246.93 22.3403C247.147 22.7016 247.797 22.4848 247.653 22.0513C247.292 21.0399 246.93 20.0284 246.641 18.9447C246.497 18.4389 245.919 18.2222 245.485 18.5834C244.763 19.1614 244.113 19.8117 243.462 20.5341C242.812 21.2566 243.679 22.1958 244.402 21.6178ZM238.766 19.8839C239.272 19.4504 239.705 19.0169 240.139 18.5834C240.5 19.2337 240.861 19.9562 241.295 20.6064C241.512 20.9676 242.162 20.7509 242.017 20.3174C241.656 19.3059 241.295 18.2945 241.006 17.2107C240.861 16.705 240.283 16.4883 239.85 16.8495C239.128 17.4275 238.477 18.0777 237.827 18.8002C237.177 19.4504 238.044 20.4619 238.766 19.8839ZM233.059 18.0777C233.564 17.6442 233.998 17.2107 234.431 16.7773C234.793 17.4275 235.154 18.15 235.587 18.8002C235.804 19.1614 236.454 18.9447 236.31 18.5112C235.949 17.4997 235.587 16.4883 235.298 15.4045C235.154 14.8988 234.576 14.6821 234.142 15.0433C233.42 15.6213 232.77 16.2715 232.119 16.994C231.469 17.7165 232.336 18.7279 233.059 18.0777ZM227.423 16.3438C227.929 15.9103 228.363 15.4768 228.796 15.0433C229.157 15.6935 229.519 16.416 229.952 17.0662C230.169 17.4275 230.819 17.2107 230.675 16.7773C230.313 15.7658 229.952 14.7543 229.663 13.6706C229.519 13.1649 228.941 12.9481 228.507 13.3094C227.785 13.8873 227.134 14.5376 226.484 15.2601C225.834 15.9825 226.701 16.994 227.423 16.3438ZM221.716 14.6098C222.222 14.1763 222.655 13.7428 223.089 13.3094C223.45 13.9596 223.811 14.6821 224.244 15.3323C224.461 15.6935 225.111 15.4768 224.967 15.0433C224.606 14.0318 224.244 13.0204 223.955 11.9367C223.811 11.4309 223.233 11.2142 222.8 11.5754C222.077 12.1534 221.427 12.8036 220.777 13.5261C220.126 14.1763 220.993 15.1878 221.716 14.6098ZM216.08 12.8036C216.586 12.3701 217.02 11.9367 217.453 11.5032C217.814 12.1534 218.176 12.8759 218.609 13.5261C218.826 13.8873 219.476 13.6706 219.332 13.2371C218.97 12.2256 218.609 11.2142 218.32 10.1305C218.176 9.62473 217.598 9.40799 217.164 9.76923C216.442 10.3472 215.792 10.9974 215.141 11.7199C214.491 12.4424 215.358 13.4539 216.08 12.8036ZM261.958 21.1121C262.608 20.3896 263.186 19.7394 263.981 19.1614C264.414 18.8002 264.992 19.0169 265.137 19.5227C265.498 20.5341 265.859 21.5456 266.148 22.6293C266.293 23.0628 265.642 23.2795 265.426 22.9183C265.064 22.2681 264.703 21.5456 264.27 20.8954C263.836 21.3289 263.403 21.7623 262.897 22.1958C262.175 22.7738 261.308 21.7623 261.958 21.1121ZM257.262 20.3896C257.767 19.9562 258.201 19.5227 258.634 19.0892C258.996 19.7394 259.357 20.4619 259.79 21.1121C260.007 21.4734 260.657 21.2566 260.513 20.8231C260.152 19.8117 259.79 18.8002 259.501 17.7165C259.357 17.2107 258.779 16.994 258.345 17.3552C257.623 17.9332 256.973 18.5834 256.322 19.3059C255.672 20.0284 256.539 21.0399 257.262 20.3896ZM251.554 18.6557C252.06 18.2222 252.493 17.7887 252.927 17.3552C253.288 18.0055 253.649 18.7279 254.083 19.3782C254.3 19.7394 254.95 19.5227 254.805 19.0892C254.444 18.0777 254.083 17.0662 253.794 15.9825C253.649 15.4768 253.071 15.2601 252.638 15.6213C251.915 16.1993 251.265 16.8495 250.615 17.572C249.965 18.2222 250.832 19.2337 251.554 18.6557ZM245.919 16.8495C246.425 16.416 246.858 15.9825 247.292 15.549C247.653 16.1993 248.014 16.9217 248.447 17.572C248.664 17.9332 249.314 17.7165 249.17 17.283C248.809 16.2715 248.447 15.2601 248.158 14.1763C248.014 13.6706 247.436 13.4539 247.003 13.8151C246.28 14.3931 245.63 15.0433 244.98 15.7658C244.329 16.4883 245.196 17.4997 245.919 16.8495ZM240.211 15.1156C240.717 14.6821 241.15 14.2486 241.584 13.8151C241.945 14.4653 242.306 15.1878 242.74 15.838C242.957 16.1993 243.607 15.9825 243.462 15.549C243.101 14.5376 242.74 13.5261 242.451 12.4424C242.306 11.9367 241.728 11.7199 241.295 12.0812C240.572 12.6591 239.922 13.3094 239.272 14.0318C238.622 14.7543 239.489 15.7658 240.211 15.1156ZM234.576 13.3816C235.082 12.9481 235.515 12.5146 235.949 12.0812C236.31 12.7314 236.671 13.4539 237.105 14.1041C237.321 14.4653 237.972 14.2486 237.827 13.8151C237.466 12.8036 237.105 11.7922 236.816 10.7084C236.671 10.2027 236.093 9.98597 235.66 10.3472C234.937 10.9252 234.287 11.5754 233.637 12.2979C232.986 12.9481 233.853 13.9596 234.576 13.3816ZM228.868 11.5754C229.374 11.1419 229.808 10.7084 230.241 10.275C230.602 10.9252 230.964 11.6477 231.397 12.2979C231.614 12.6591 232.264 12.4424 232.119 12.0089C231.758 10.9974 231.397 9.98597 231.108 8.90225C230.964 8.39652 230.386 8.17978 229.952 8.54102C229.23 9.119 228.579 9.76923 227.929 10.4917C227.279 11.2142 228.146 12.2256 228.868 11.5754ZM223.161 9.84147C223.667 9.40799 224.1 8.9745 224.533 8.54102C224.895 9.19124 225.256 9.91372 225.689 10.5639C225.906 10.9252 226.556 10.7084 226.412 10.275C226.051 9.26349 225.689 8.25202 225.4 7.16831C225.256 6.66257 224.678 6.44583 224.244 6.80707C223.522 7.38505 222.872 8.03528 222.222 8.75776C221.571 9.48023 222.438 10.4917 223.161 9.84147ZM217.525 8.10753C218.031 7.67404 218.465 7.24055 218.898 6.80707C219.259 7.4573 219.621 8.17978 220.054 8.83001C220.271 9.19124 220.921 8.9745 220.777 8.54102C220.415 7.52955 220.054 6.51808 219.765 5.43436C219.621 4.92863 219.043 4.71189 218.609 5.07312C217.887 5.65111 217.236 6.30134 216.586 7.02381C215.936 7.74629 216.803 8.68551 217.525 8.10753ZM263.403 16.3438C264.053 15.6213 264.631 14.9711 265.426 14.3931C265.859 14.0318 266.437 14.2486 266.582 14.7543C266.943 15.7658 267.304 16.7773 267.593 17.861C267.738 18.2945 267.087 18.5112 266.871 18.15C266.509 17.4997 266.148 16.7773 265.715 16.127C265.281 16.5605 264.848 16.994 264.342 17.4275C263.692 18.0777 262.825 17.0662 263.403 16.3438ZM258.707 15.6935C259.212 15.26 259.646 14.8266 260.079 14.3931C260.441 15.0433 260.802 15.7658 261.235 16.416C261.452 16.7773 262.102 16.5605 261.958 16.127C261.597 15.1156 261.235 14.1041 260.946 13.0204C260.802 12.5146 260.224 12.2979 259.79 12.6591C259.068 13.2371 258.418 13.8873 257.767 14.6098C257.117 15.26 257.984 16.2715 258.707 15.6935ZM253.071 13.8873C253.577 13.4539 254.011 13.0204 254.444 12.5869C254.805 13.2371 255.167 13.9596 255.6 14.6098C255.817 14.9711 256.467 14.7543 256.322 14.3208C255.961 13.3094 255.6 12.2979 255.311 11.2142C255.167 10.7084 254.589 10.4917 254.155 10.8529C253.433 11.4309 252.782 12.0812 252.132 12.8036C251.482 13.5261 252.349 14.5376 253.071 13.8873ZM247.364 12.1534C247.869 11.7199 248.303 11.2864 248.736 10.8529C249.098 11.5032 249.459 12.2256 249.892 12.8759C250.109 13.2371 250.759 13.0204 250.615 12.5869C250.254 11.5754 249.892 10.5639 249.603 9.48023C249.459 8.9745 248.881 8.75776 248.447 9.119C247.725 9.69698 247.075 10.3472 246.425 11.0697C245.774 11.7922 246.641 12.8036 247.364 12.1534ZM241.656 10.4195C242.162 9.98597 242.595 9.55248 243.029 9.119C243.39 9.76923 243.751 10.4917 244.185 11.1419C244.402 11.5032 245.052 11.2864 244.907 10.8529C244.546 9.84147 244.185 8.83001 243.896 7.74629C243.751 7.24056 243.173 7.02381 242.74 7.38505C242.017 7.96303 241.367 8.61326 240.717 9.33574C240.067 9.98597 240.934 10.9974 241.656 10.4195ZM236.021 8.61326C236.527 8.17978 236.96 7.74629 237.394 7.3128C237.755 7.96303 238.116 8.68551 238.55 9.33574C238.766 9.69698 239.417 9.48023 239.272 9.04675C238.911 8.03528 238.55 7.02381 238.261 5.9401C238.116 5.43436 237.538 5.21762 237.105 5.57886C236.382 6.15684 235.732 6.80707 235.082 7.52955C234.431 8.25202 235.298 9.26349 236.021 8.61326ZM230.313 6.87932C230.819 6.44583 231.253 6.01234 231.686 5.57886C232.047 6.22909 232.408 6.95156 232.842 7.60179C233.059 7.96303 233.709 7.74629 233.564 7.3128C233.203 6.30134 232.842 5.28987 232.553 4.20615C232.408 3.70042 231.83 3.48368 231.397 3.84491C230.675 4.4229 230.024 5.07312 229.374 5.7956C228.724 6.51808 229.591 7.52955 230.313 6.87932ZM224.678 5.14537C225.184 4.71189 225.617 4.2784 226.051 3.84491C226.412 4.49514 226.773 5.21762 227.207 5.86785C227.423 6.22909 228.074 6.01234 227.929 5.57886C227.568 4.56739 227.207 3.55592 226.918 2.47221C226.773 1.96647 226.195 1.74973 225.762 2.11097C225.039 2.68895 224.389 3.33918 223.739 4.06166C223.089 4.71189 223.955 5.72335 224.678 5.14537ZM218.97 3.33918C219.476 2.90569 219.91 2.47221 220.343 2.03872C220.704 2.68895 221.066 3.41143 221.499 4.06166C221.716 4.4229 222.366 4.20615 222.222 3.77267C221.86 2.7612 221.499 1.74973 221.21 0.666014C221.066 0.16028 220.488 -0.0564632 220.054 0.304775C219.332 0.882757 218.681 1.53299 218.031 2.25546C217.381 2.97794 218.248 3.98941 218.97 3.33918ZM264.848 11.6477C265.498 10.9252 266.076 10.275 266.871 9.69698C267.304 9.33574 267.882 9.55248 268.027 10.0582C268.388 11.0697 268.749 12.0812 269.038 13.1649C269.183 13.5984 268.532 13.8151 268.316 13.4539C267.954 12.8036 267.593 12.0812 267.16 11.4309C266.726 11.8644 266.293 12.2979 265.787 12.7314C265.137 13.3094 264.27 12.2979 264.848 11.6477ZM260.152 10.9252C260.657 10.4917 261.091 10.0582 261.524 9.62473C261.886 10.275 262.247 10.9974 262.68 11.6477C262.897 12.0089 263.547 11.7922 263.403 11.3587C263.042 10.3472 262.68 9.33574 262.391 8.25202C262.247 7.74629 261.669 7.52955 261.235 7.89079C260.513 8.46877 259.863 9.119 259.212 9.84147C258.562 10.5639 259.429 11.5754 260.152 10.9252ZM254.516 9.19124C255.022 8.75776 255.456 8.32427 255.889 7.89079C256.25 8.54101 256.611 9.26349 257.045 9.91372C257.262 10.275 257.912 10.0582 257.767 9.62473C257.406 8.61326 257.045 7.60179 256.756 6.51808C256.611 6.01234 256.033 5.7956 255.6 6.15684C254.878 6.73482 254.227 7.38505 253.577 8.10753C252.927 8.83001 253.794 9.84147 254.516 9.19124ZM248.809 7.4573C249.314 7.02381 249.748 6.59033 250.181 6.15684C250.543 6.80707 250.904 7.52955 251.337 8.17978C251.554 8.54102 252.204 8.32427 252.06 7.89079C251.699 6.87932 251.337 5.86785 251.048 4.78413C250.904 4.2784 250.326 4.06166 249.892 4.4229C249.17 5.00088 248.52 5.65111 247.869 6.37358C247.219 7.02381 248.086 8.03528 248.809 7.4573ZM243.173 5.65111C243.679 5.21762 244.113 4.78413 244.546 4.35065C244.907 5.00088 245.269 5.72335 245.702 6.37358C245.919 6.73482 246.569 6.51808 246.425 6.08459C246.063 5.07312 245.702 4.06166 245.413 2.97794C245.269 2.47221 244.691 2.25546 244.257 2.6167C243.535 3.19468 242.884 3.84491 242.234 4.56739C241.584 5.28987 242.451 6.30134 243.173 5.65111ZM237.466 3.91716C237.972 3.48368 238.405 3.05019 238.839 2.6167C239.2 3.26693 239.561 3.98941 239.994 4.63964C240.211 5.00088 240.861 4.78413 240.717 4.35065C240.356 3.33918 239.994 2.32771 239.706 1.244C239.561 0.738262 238.983 0.521519 238.55 0.882758C237.827 1.46074 237.177 2.11097 236.527 2.83344C235.876 3.55592 236.743 4.56739 237.466 3.91716ZM231.83 2.18322C232.336 1.74973 232.77 1.31624 233.203 0.882758C233.564 1.53299 233.926 2.25546 234.359 2.90569C234.576 3.26693 235.226 3.05019 235.082 2.6167C234.72 1.60523 234.359 0.593767 234.07 -0.489948C233.926 -0.995683 233.348 -1.21243 232.914 -0.851187C232.192 -0.273206 231.542 0.377023 230.891 1.0995C230.241 1.74973 231.108 2.7612 231.83 2.18322ZM226.123 0.377023C226.629 -0.0564632 227.062 -0.489948 227.496 -0.923435C227.857 -0.273206 228.218 0.449271 228.652 1.0995C228.868 1.46074 229.519 1.244 229.374 0.81051C229.013 -0.200958 228.652 -1.21243 228.363 -2.29614C228.218 -2.80188 227.64 -3.01862 227.207 -2.65738C226.484 -2.0794 225.834 -1.42917 225.184 -0.706693C224.533 0.0157843 225.4 1.02725 226.123 0.377023ZM220.415 -1.35692C220.921 -1.79041 221.355 -2.22389 221.788 -2.65738C222.149 -2.00715 222.511 -1.28467 222.944 -0.634444C223.161 -0.273206 223.811 -0.489948 223.667 -0.923435C223.305 -1.9349 222.944 -2.94637 222.655 -4.03009C222.511 -4.53582 221.933 -4.75256 221.499 -4.39132C220.777 -3.81334 220.126 -3.16311 219.476 -2.44064C218.826 -1.71816 219.693 -0.706692 220.415 -1.35692ZM266.365 6.87932C267.015 6.15684 267.593 5.50661 268.388 4.92863C268.821 4.56739 269.399 4.78413 269.544 5.28987C269.905 6.30134 270.266 7.3128 270.555 8.39652C270.7 8.83001 270.05 9.04675 269.833 8.68551C269.472 8.03528 269.11 7.3128 268.677 6.66257C268.243 7.09606 267.81 7.52955 267.304 7.96303C266.582 8.61326 265.715 7.60179 266.365 6.87932ZM261.669 6.22909C262.175 5.7956 262.608 5.36212 263.042 4.92863C263.403 5.57886 263.764 6.30134 264.197 6.95156C264.414 7.3128 265.064 7.09606 264.92 6.66257C264.559 5.65111 264.197 4.63964 263.908 3.55592C263.764 3.05019 263.186 2.83344 262.753 3.19468C262.03 3.77267 261.38 4.4229 260.73 5.14537C260.079 5.86785 260.946 6.87932 261.669 6.22909ZM255.961 4.49514C256.467 4.06166 256.9 3.62817 257.334 3.19468C257.695 3.84491 258.056 4.56739 258.49 5.21762C258.707 5.57886 259.357 5.36212 259.212 4.92863C258.851 3.91716 258.49 2.90569 258.201 1.82198C258.056 1.31624 257.478 1.0995 257.045 1.46074C256.322 2.03872 255.672 2.68895 255.022 3.41143C254.372 4.06166 255.239 5.07312 255.961 4.49514ZM250.326 2.68895C250.832 2.25546 251.265 1.82198 251.699 1.38849C252.06 2.03872 252.421 2.7612 252.855 3.41143C253.071 3.77267 253.722 3.55592 253.577 3.12244C253.216 2.11097 252.855 1.0995 252.566 0.0157843C252.421 -0.489949 251.843 -0.706693 251.41 -0.345454C250.687 0.232528 250.037 0.882758 249.387 1.60524C248.736 2.32771 249.603 3.33918 250.326 2.68895ZM244.618 0.955006C245.124 0.52152 245.558 0.0880327 245.991 -0.345454C246.352 0.304775 246.714 1.02725 247.147 1.67748C247.364 2.03872 248.014 1.82198 247.869 1.38849C247.508 0.377023 247.147 -0.634444 246.858 -1.71816C246.714 -2.22389 246.136 -2.44064 245.702 -2.0794C244.98 -1.50142 244.329 -0.851187 243.679 -0.12871C243.029 0.593767 243.896 1.60524 244.618 0.955006ZM238.911 -0.77894C239.417 -1.21243 239.85 -1.64591 240.283 -2.0794C240.645 -1.42917 241.006 -0.706693 241.439 -0.0564632C241.656 0.304775 242.306 0.0880327 242.162 -0.345454C241.801 -1.35692 241.439 -2.36839 241.15 -3.4521C241.006 -3.95784 240.428 -4.17458 239.994 -3.81334C239.272 -3.23536 238.622 -2.58513 237.972 -1.86266C237.321 -1.21243 238.188 -0.200959 238.911 -0.77894ZM233.275 -2.58513C233.781 -3.01862 234.215 -3.4521 234.648 -3.88559C235.009 -3.23536 235.371 -2.51289 235.804 -1.86266C236.021 -1.50142 236.671 -1.71816 236.527 -2.15165C236.165 -3.16311 235.804 -4.17458 235.515 -5.2583C235.371 -5.76403 234.793 -5.98077 234.359 -5.61954C233.637 -5.04155 232.986 -4.39132 232.336 -3.66885C231.686 -2.94637 232.553 -1.9349 233.275 -2.58513ZM227.568 -4.31908C228.074 -4.75256 228.507 -5.18605 228.941 -5.61954C229.302 -4.96931 229.663 -4.24683 230.097 -3.5966C230.313 -3.23536 230.964 -3.4521 230.819 -3.88559C230.458 -4.89706 230.097 -5.90853 229.808 -6.99224C229.663 -7.49798 229.085 -7.71472 228.652 -7.35348C227.929 -6.7755 227.279 -6.12527 226.629 -5.40279C225.978 -4.68032 226.845 -3.66885 227.568 -4.31908ZM221.933 -6.05302C222.438 -6.48651 222.872 -6.91999 223.305 -7.35348C223.667 -6.70325 224.028 -5.98077 224.461 -5.33054C224.678 -4.96931 225.328 -5.18605 225.184 -5.61954C224.822 -6.631 224.461 -7.64247 224.172 -8.72619C224.028 -9.23192 223.45 -9.44866 223.016 -9.08743C222.294 -8.50944 221.644 -7.85921 220.993 -7.13674C220.343 -6.48651 221.21 -5.47504 221.933 -6.05302ZM267.81 2.18322C268.46 1.46074 269.038 0.810511 269.833 0.232529C270.266 -0.12871 270.844 0.0880327 270.989 0.593767C271.35 1.60524 271.711 2.6167 272 3.70042C272.145 4.1339 271.494 4.35065 271.278 3.98941C270.917 3.33918 270.555 2.6167 270.122 1.96647C269.688 2.39996 269.255 2.83344 268.749 3.26693C268.099 3.84491 267.232 2.83344 267.81 2.18322ZM263.114 1.46074C263.619 1.02725 264.053 0.593767 264.486 0.16028C264.848 0.81051 265.209 1.53299 265.642 2.18322C265.859 2.54445 266.509 2.32771 266.365 1.89423C266.004 0.882757 265.642 -0.12871 265.353 -1.21243C265.209 -1.71816 264.631 -1.9349 264.197 -1.57366C263.475 -0.995683 262.825 -0.345454 262.175 0.377023C261.524 1.0995 262.391 2.11097 263.114 1.46074ZM257.406 -0.273206C257.912 -0.706692 258.345 -1.14018 258.779 -1.57366C259.14 -0.923435 259.501 -0.200958 259.935 0.449271C260.152 0.81051 260.802 0.593767 260.657 0.16028C260.296 -0.851188 259.935 -1.86265 259.646 -2.94637C259.501 -3.4521 258.923 -3.66885 258.49 -3.30761C257.767 -2.72963 257.117 -2.0794 256.467 -1.35692C255.817 -0.634444 256.684 0.377024 257.406 -0.273206ZM251.771 -2.00715C252.277 -2.44064 252.71 -2.87412 253.144 -3.30761C253.505 -2.65738 253.866 -1.9349 254.3 -1.28467C254.516 -0.923435 255.167 -1.14018 255.022 -1.57366C254.661 -2.58513 254.3 -3.5966 254.011 -4.68032C253.866 -5.18605 253.288 -5.40279 252.855 -5.04155C252.132 -4.46357 251.482 -3.81334 250.832 -3.09087C250.181 -2.36839 251.048 -1.42917 251.771 -2.00715ZM246.063 -3.81334C246.569 -4.24683 247.003 -4.68032 247.436 -5.1138C247.797 -4.46357 248.158 -3.74109 248.592 -3.09087C248.809 -2.72963 249.459 -2.94637 249.314 -3.37986C248.953 -4.39132 248.592 -5.40279 248.303 -6.48651C248.158 -6.99224 247.581 -7.20899 247.147 -6.84775C246.425 -6.26977 245.774 -5.61954 245.124 -4.89706C244.474 -4.17458 245.341 -3.16311 246.063 -3.81334ZM240.428 -5.54729C240.934 -5.98077 241.367 -6.41426 241.801 -6.84775C242.162 -6.19752 242.523 -5.47504 242.957 -4.82481C243.173 -4.46357 243.824 -4.68032 243.679 -5.1138C243.318 -6.12527 242.957 -7.13674 242.668 -8.22045C242.523 -8.72619 241.945 -8.94293 241.512 -8.58169C240.789 -8.00371 240.139 -7.35348 239.489 -6.631C238.839 -5.90853 239.706 -4.89706 240.428 -5.54729ZM234.72 -7.28123C235.226 -7.71472 235.66 -8.14821 236.093 -8.58169C236.454 -7.93146 236.816 -7.20898 237.249 -6.55876C237.466 -6.19752 238.116 -6.41426 237.972 -6.84775C237.61 -7.85921 237.249 -8.87068 236.96 -9.9544C236.816 -10.4601 236.238 -10.6769 235.804 -10.3156C235.082 -9.73766 234.431 -9.08743 233.781 -8.36495C233.131 -7.64247 233.998 -6.631 234.72 -7.28123ZM229.085 -9.01518C229.591 -9.44866 230.024 -9.88215 230.458 -10.3156C230.819 -9.66541 231.18 -8.94293 231.614 -8.2927C231.83 -7.93146 232.481 -8.14821 232.336 -8.58169C231.975 -9.59316 231.614 -10.6046 231.325 -11.6883C231.18 -12.1941 230.602 -12.4108 230.169 -12.0496C229.446 -11.4716 228.796 -10.8214 228.146 -10.0989C227.496 -9.44866 228.363 -8.4372 229.085 -9.01518ZM223.378 -10.8214C223.883 -11.2549 224.317 -11.6883 224.75 -12.1218C225.111 -11.4716 225.473 -10.7491 225.906 -10.0989C226.123 -9.73765 226.773 -9.9544 226.629 -10.3879C226.267 -11.3994 225.906 -12.4108 225.617 -13.4945C225.473 -14.0003 224.895 -14.217 224.461 -13.8558C223.739 -13.2778 223.089 -12.6276 222.438 -11.9051C221.788 -11.1826 222.655 -10.1711 223.378 -10.8214Z" fill="#FFEE92"/>
</g>
<path d="M164.819 19.2991L161.315 16.6726C160.751 16.2238 159.936 16.6886 160.036 17.4029L160.515 21.7554C160.465 21.9381 160.482 22.2371 160.365 22.3035L157.739 25.8073C157.29 26.3718 157.755 27.186 158.469 27.0867L162.705 26.6736C162.888 26.7235 163.071 26.7734 163.254 26.8234L166.757 29.4498C167.322 29.8986 168.136 29.4339 168.037 28.7195L167.557 24.367C167.607 24.1843 167.657 24.0016 167.707 23.8189L170.333 20.3152C170.782 19.7506 170.318 18.9364 169.603 19.0357L165.251 19.5152C165.251 19.5152 165.068 19.4653 164.819 19.2991Z" fill="#92C1FF"/>
<path d="M132.65 87.65L131.95 86.15C131.85 85.95 131.55 85.95 131.45 86.15L130.85 87.65C130.85 87.75 130.75 87.75 130.65 87.85L129.15 88.55C128.95 88.65 128.95 88.95 129.15 89.05L130.65 89.65C130.75 89.65 130.75 89.75 130.85 89.85L131.55 91.35C131.65 91.55 131.95 91.55 132.05 91.35L132.65 89.85C132.65 89.75 132.75 89.75 132.85 89.65L134.35 88.95C134.55 88.85 134.55 88.55 134.35 88.45L132.85 87.85C132.75 87.75 132.65 87.65 132.65 87.65Z" fill="#92C1FF"/>
<path d="M309.503 90.4033L312.703 90.9033C313.203 91.0033 313.603 90.4033 313.303 90.0033L311.403 87.3033C311.403 87.2033 311.303 87.1033 311.303 86.9033L311.803 83.7033C312.003 83.2033 311.403 82.8033 311.003 83.1033L308.303 84.9033C308.203 85.0033 308.103 85.1033 307.903 85.0033L304.703 84.5033C304.203 84.4033 303.803 85.0033 304.103 85.4033L305.903 88.0033C306.003 88.2033 306.103 88.3033 306.003 88.5033L305.503 91.7033C305.403 92.2033 306.003 92.6033 306.403 92.3033L309.003 90.4033C309.203 90.4033 309.303 90.3033 309.503 90.4033Z" fill="#92C1FF"/>
</g>
<defs>
<clipPath id="clip0_508_3813">
<rect width="328" height="104" rx="8" fill="white"/>
</clipPath>
<clipPath id="clip1_508_3813">
<rect width="23" height="26.9881" fill="white" transform="translate(191 66)"/>
</clipPath>
<clipPath id="clip2_508_3813">
<rect width="47" height="37.332" fill="white" transform="translate(17 82)"/>
</clipPath>
<clipPath id="clip3_508_3813">
<rect width="53.2429" height="40.4918" fill="white" transform="translate(-16 1.69727) rotate(-17.1466)"/>
</clipPath>
<clipPath id="clip4_508_3813">
<rect width="63" height="60.6881" fill="white" transform="translate(209 -14)"/>
</clipPath>
</defs>
</svg>
